/* XPM */
static char *result[] = {
/* columns rows colors chars-per-pixel */
"80 80 33 1 ",
"  c #D34F00",
". c #D45200",
"X c #D65A00",
"o c #D85E00",
"O c #DA6300",
"+ c #DC6B00",
"@ c #DE7300",
"# c #E16D01",
"$ c #E37401",
"% c #E27B00",
"& c #E87D01",
"* c #E48400",
"= c #EC8401",
"- c #E68B00",
"; c #ED8B01",
": c #F08E02",
"> c #E99400",
", c #EC9C00",
"< c #F39302",
"1 c #F69A02",
"2 c #F99E02",
"3 c #EEA300",
"4 c #F0A700",
"5 c #FCA602",
"6 c #F1AC00",
"7 c #FDA802",
"8 c #F4B400",
"9 c #F6BB00",
"0 c #F8BF00",
"q c #F9C300",
"w c #FCCC00",
"e c #FDD000",
"r c None",
/* pixels */
"rrrrrrrrrrrrrrrrrrrrrrrrr........rrrrrrrrrrrrrrrrrrrrrrrrrrrrrrrrrrrrrrrrrrrrrrr",
"rrrrrrrrrrrrrrrrrrrrrr.............rrrrrrrrrrrrrrrrrrrrrrrrrrrrrrrrrrrrrrrrrrrrr",
"rrrrrrrrrrrrrrrrrr.......... . .....rrrrrrrrrrrrrrrrrrrrrrrrrrrrrrrrrrrrrrrrrrrr",
"rrrrrrrrrrrrrrr.......XO@*>>>>-@X.....rrrrrrrrrrrrrrrrrrrrrrrrrrrrrrrrrrrrrrrrrr",
"rrrrrrrrrrr.......oO%<69wwwwwwwq,O.....rrrrrrrrrrrrrrrrrrrrrrrrrrrrrrrrrrrrrrrrr",
"rrrrrrr.......o+@>8qwwwwwwwwwwwww9*X....rrrrrrrrrrrrrrrrrrrrrrrrrrrrrrrrrrrrrrrr",
"rrrrr.....o+*38qwwwwwwwwww9>%-0wwww3+....rrrrrrrrrrrrrrrrrrrrrrrrrrrrrrrrrrrrrrr",
"rrrr...O%,9qwwwwwwwwwwwqw8@@$o@qewwe9*X...rrrrrrrrrrrrrrrrrrrrrrrrrrrrrrrrrrrrrr",
"rrr..O-8wwwwwwwwwwwwwwwwq$$55;X-wwwwwq3O....rrrrrrrrrrrrrrrrrrrrrrrrrrrrrrrrrrrr",
"rr..+8wwwwwwwwwwwwwwwwww8o<552+Oqwwwwww8@....rrrrrrrrrrrrrrrrrrrrrrrrrrrrrrrrrrr",
"rr..>wwwwwwwwwwwwwwwwwww6X:555$Oqwwwwwwwq-X...rrrrrrrrrrrrrrrrrrrrrrrrrrrrrrrrrr",
"r...O8wwwwwwwwwwwwwwwwwwq+O255+%wwwwwwwwww,O..Xrrrrrrrrrrrrrrrrrrrrrrrrrrrrrrrrr",
"r....@wwwwwwwwwwwwwwwwwww,X+=%O6wwwwwwwwwww8+...rrrrrrrrrrrrrrrrrrrrrrrrrrrrrrrr",
"r.....*0wwwwwwwwwwwwwwwwww,OO@6wwwwwwwwwwwwwq@...rrrrrrrrrrrrrrrrrrrrrrrrrrrrrrr",
"r.o@X..+,0wwwwwwwwwwwwwwwww09qwwwwwwwwwwwwwweq-...rrrrrrrrrrrrrrrrrrrrrrrrrrrrrr",
"..O06*O..O>qwwwwwwwwwwwwwwwwwwwwwwwwwwwwww9qwww>o..rrrrrrrrrrrrrrrrrrrrrrrrrrrrr",
"..+qew8-O..+3qwwwwwwwwwwwwwwwwwwwwwwwwwwq-O%0www3O..rrrrrrrrrrrrrrrrrrrrrrrrrrrr",
"..@qwwww0*o..@3qwwwwewwwwewwwwwwwwwwwwww>O+.%qwww3O..rrrrrrrrrrrrrrrrrrrrrrrrrrr",
"..@wwwwwww6@...@,qww0,*@@>4qwwwwwwwwwww0O=5+.6wwww3o..rrrrrrrrrrrrrrrrrrrrrrrrrr",
"..%wwwwwwwwq>X...+,-O...  X@3wwwwwwwwww8X&7<.,wwwww,o..rrrrrrrrrrrrrrrrrrrrrrrrr",
"..*wwwwwwwwww6@......@=;=$o.X-wwwwwwwww9oo::O8wwwwww,...rrrrrrrrrrrrrrrrrrrrrrrr",
"..-wwwwwwwwwwwq*X..X;555551&XX-qwwwwwwww-..o>wwwwwwww,...rrrrrrrrrrrrrrrrrrrrrrr",
"..>wwwqwwwwwwwww* ..&5555555:oX3wwwwwwwwq,*4qwwwwwwwww-...rrrrrrrrrrrrrrrrrrrrrr",
"..>wwwwwwwwwwww0+oX.X;5555557:X+9wwwwwwwwwwwwwwwwwwwwww-...rrrrrrrrrrrrrrrrrrrrr",
"..,ewwwwwwwwwww3X:$..X=5777575#.3wwwwwwwwwwwwwwwwwwwwwww-...rrrrrrrrrrrrrrrrrrrr",
"..3www0339wwwww@O52O...#:25777= *wwwwwwwwwwwwwwwwwwwwwwwq-.rrrrrrrrrrrrrrrrrrrrr",
".X3ww3+o.O3wwwqO$77<o...XO#&&&+.O6wwwwwwwwwwwwwwwwwwwwwwe6Xrrrrrrrrrrrrrrrrrrrrr",
"..3e6o$<=XO8ww9O&777<O.......  ..X%8wwwwwwwwwwwwwwwwwwwww>.rrrrrrrrrrrrrrrrrrrrr",
"..3w@O255&.*ww8o&75771$X ......... o*8wwwwwwwwwwwwwwwwwww*.rrrrrrrrrrrrrrrrrrrrr",
"..39o#557<X@qw9o$775775<$OXXXoO......O-0wwwwwwwwwwwwwwwww;.rrrrrrrrrrrrrrrrrrrrr",
".X38.$5552O+qw0O#7775557721115=..>-O...O>0wwwwwwwwwwwwwww3..rrrrrrrrrrrrrrrrrrrr",
"..,8o+2551X@www@o1755555757777=..8w8*o...+>0wwwwwwwwwwwweq@..rrrrrrrrrrrrrrrrrrr",
"..,q+X=57=X,www-.=777575757555&.O0www8-O. .+,qwwwwwwwwwwww8O...rrr.rrrrrrrrrrrrr",
"..-w>.X&=o%qwww4X#555757575555# @qwwwww8-O. .@3qwwwwwwwwwww8@....X..rrrrrrrrrrrr",
"..*wq*XXo-qwwww0OX=57575755551X.>wwwwwwew9-O...@3wwwwwwwwwwwq4,>38%.Xrrrrrrrrrrr",
"..*wwq848wwwwwww> o:575557555&.O9wwwwwwwwww8-O..X%6wwwwwwwwwwwwwwwq@ .rrrrrrrrrr",
"..@wwwwwwwwwwwww9+.X=5555555:X.-wwwwwwwwwwwww9-O. .*8wwwwwwwwwwwwww9@..rrrrrrrrr",
"..+wwwwwwwwwwwwww3X. #;2555=o.+0wwwwwwwwwwwwwww8*o. .*8wwwwwwwwwwwww9+..rrrrrrrr",
". O9wwwwwwwwwwwwww>X  XO##O..@8wwwwwwwwwwwwwwwwww8-o..o-9wwwwwwwwwwww9+ .rrrrrrr",
"..o9wwwwwwwwwwwwwww,+    . X-qewwwwwwwwwwwwwwwwwwww8*O..O>qwwwwwwwwwww8+..rrrrrr",
"r.X6wwwwwwwwwwwwwwww9,@OXO%4wwwwwwwwwwwwwwwwwwwwwweew8*O..+3qwwwwwwwwww6O..rrrrr",
"r..3ewwwwwwwwwwwwwwwwwq969qwwwwwwwwwwwwwwwwwwwwwq3*@>9w8*O..@8wwwwwwwwww3o.rrrrr",
"r..>wwwwwwwwwwwwwwwwwwwwwwwwwwwwwwwwwwwwwwwwwww9@....+6ew8-O..*8wwwwwwwww>X.rrrr",
"rX *wwwwwwwwwwwwwwwwwwwwwwwwwwwwwwwwqwwwwwwwww9+.==O..+9www8-o.+>qewwwwwww-.Xrrr",
"r..@wwwwwwwwwwwwwwwwwwwwwwwwwwwwwww,@*0wwwwwwq@X;5:o%O *wwwww8@o.@3wwwwwwwq%..rr",
"r..O9wwwwwwwwwwwwwwwwwwwwwwwwwwwww3Xo.&wwwwww4X&52O+5<XX6wwwwww3+..@6qwwwww9O.rr",
"r...,wwwwwwwwwwwwwwwwwwwwwwwwwwwwq@ &+Oqwwwww*.17:.:55@.-wwwwwwwq-O.X@6wwwww,.Xr",
"r.X.@qwwwwwwwwwwwwwwwwwwwwwwwwwwwq@.oo@qwwwww@X17$o2571.+qwwwwwwww8@X.o@4qwe9O.r",
"rr..X4wwwwwwwwwwwwwwwwwwq9qwwwwwww4+.O,wwwwww@X:5+O5555#X9wwwwwwwwwq3+X X@393..r",
"rrX. @qwwwwwwwwwwwwwwww9%O%9wwwwwww0,8wwwwwww= $2oO5555$X8wwwwwwwwwww9-o  .o.X.r",
"rr....*qwwwwwwwwwwwwwwq%##.*wwwwwwweewwwwwwww3XX:OO5555$O0wwwwwwwwwwwww8@..+-,..",
"rrr...X*qwwwwwwwwwwwwe3X<1X+qwwwwwwwwwwwwwwwwq# ooX<552O-wwwwwwwwwwwwwweqO.>e8X.",
"rrr..X .@6wwwwwwwwwwww*.<2oOqwwwwwwwwwwwwwwwww3X...*21$$0wwwwwwwwwwwwwwwqO >e9X.",
"rrrr.....o-9wwwwwwwwwe-.#@.%wwwwwwwwwwwwwwwwwww>X...OX+8wwwwwwwwwwwwwwwwq+.>w9O ",
"rrrrr..X...O>0wwwwwwww9+..+9wwwwwwwwwwwwwwwwwwwq5%OOO*9wwwwwwwwwwwwwwwwwq+ -w9O ",
"rrrrrrr......+,qwwwwwww9>>qwwwwwwwwwwwwwwwwwwwwwwwq9qwwwwwwwwwwwwwwwwwwwqO -w9O ",
"rrrrrrrrr..X. .+,qwwwwwwwwwwwwwwwwwwwwwwwwwwwwwwwwwwwwwwwwwwwwq3*3wwwwwwq+.*w9o.",
"rrrrrrrrrrr......+,qwwwwwwwwwwwwwwwwwwwwwwwwwwwwwwwwwwwwwwwww8@X.X3wwwwwqO.*w9O.",
"rrrrrrrrrrrrr......#,qwwwwwwwwwwwwwwwwwwwwwwwwwwwwwwwwwwwwwwq#X=:o+9wwwwq+ *wqO.",
"rrrrrrrrrrrrrrr.....X@,qewwwwwwwwwwwwwwwwwwwwwwwwwwwwwwwwwww,.O57=X8wwwwq+ *wqO.",
"rrrrrrrrrrrrrrrrr......+-6wwwwwwwwwwwwwwwwwwwwwwwwwwwwwwwwww* O251o4wwwwq+.*w0O.",
"rrrrrrrrrrrrrrrrrrrr.....o@>8wewwwwwwwwwwwwwwwwwwwwwwwwwwwww% X<71O8wwwwq+ *wqO.",
"rrrrrrrrrrrrrrrrrrrrrrX.....o%,qwwwwwwwwwwwwwwwwwwwwwwwwwwww%..+,>@qwwwwq+ *wqO.",
"rrrrrrrrrrrrrrrrrrrrrrrrr.....X+-6qwwwwwwwwwwwwwwwwwwwwwwwww>...OO3wwwwwqO *eqO.",
"rrrrrrrrrrrrrrrrrrrrrrrrrrrr.....X@>8wwwwwwwwwwwwwwwwwwwwwwwq@..X>wwwwwwq+.@eqO.",
"rrrrrrrrrrrrrrrrrrrrrrrrrrrrrr......O%39wewwwwwwwwwwwwwwwwwwwq>*3wwwwwwwq+.*wqO.",
"rrrrrrrrrrrrrrrrrrrrrrrrrrrrrrrrr.X....O*4qwwwwwwwwwwwwwwwwwwwwwwwwwwwwwq+ *wqO.",
"rrrrrrrrrrrrrrrrrrrrrrrrrrrrrrrrrrrr......+-8qewwwwwwwwwwwwwwwwwwwwwwwwwqO *wqO.",
"rrrrrrrrrrrrrrrrrrrrrrrrrrrrrrrrrrrrrrr... .X+>8wwwwwwwwwwwwwwwwwwwwwwwwqO.*wqO.",
"rrrrrrrrrrrrrrrrrrrrrrrrrrrrrrrrrrrrrrrrrr.X...o@39wwwwwwwwwwwwwwwwwwwww0O.*wq+ ",
"rrrrrrrrrrrrrrrrrrrrrrrrrrrrrrrrrrrrrrrrrrrrr.X...O%39wwwwwwwwwwwwwwwwww0O.*wq+.",
"rrrrrrrrrrrrrrrrrrrrrrrrrrrrrrrrrrrrrrrrrrrrrrrr....XO%39wwwwwwwwwwwwwww8o.*w0O ",
"rrrrrrrrrrrrrrrrrrrrrrrrrrrrrrrrrrrrrrrrrrrrrrrrrrrXX  XO%3qwwwwwwwwwwww8X.*wqO.",
"rrrrrrrrrrrrrrrrrrrrrrrrrrrrrrrrrrrrrrrrrrrrrrrrrrrrrr... XO*39qwwwwwwww9o.-w0O.",
"rrrrrrrrrrrrrrrrrrrrrrrrrrrrrrrrrrrrrrrrrrrrrrrrrrrrrrrrr....XO@>8qwewww6X.>e8o.",
"rrrrrrrrrrrrrrrrrrrrrrrrrrrrrrrrrrrrrrrrrrrrrrrrrrrrrrrrrrr......o@>30qq%. >w>.r",
"rrrrrrrrrrrrrrrrrrrrrrrrrrrrrrrrrrrrrrrrrrrrrrrrrrrrrrrrrrrrrr......Xo+@...*,O.r",
"rrrrrrrrrrrrrrrrrrrrrrrrrrrrrrrrrrrrrrrrrrrrrrrrrrrrrrrrrrrrrrrrr.... ........rr",
"rrrrrrrrrrrrrrrrrrrrrrrrrrrrrrrrrrrrrrrrrrrrrrrrrrrrrrrrrrrrrrrrrrrr.........rrr",
"rrrrrrrrrrrrrrrrrrrrrrrrrrrrrrrrrrrrrrrrrrrrrrrrrrrrrrrrrrrrrrrrrrrrrrr....rrrrr"
};
