/* XPM */
static char *a39bea99009643c6817cb71abfc466c8HHtTrqNFQJQQm4EB[] = {
/* columns rows colors chars-per-pixel */
"80 80 256 2 ",
"   c black",
".  c #010101",
"X  c #020202",
"o  c gray1",
"O  c #040404",
"+  c gray2",
"@  c #060606",
"#  c #070707",
"$  c gray3",
"%  c #090909",
"&  c gray4",
"*  c #0B0B0B",
"=  c #0C0C0C",
"-  c gray5",
";  c #0E0E0E",
":  c gray6",
">  c #101010",
",  c #111111",
"<  c gray7",
"1  c #131313",
"2  c gray8",
"3  c #151515",
"4  c #161616",
"5  c gray9",
"6  c #181818",
"7  c #191919",
"8  c gray10",
"9  c #1B1B1B",
"0  c gray11",
"q  c #1D1D1D",
"w  c #1E1E1E",
"e  c gray12",
"r  c #202020",
"t  c gray13",
"y  c #222222",
"u  c #232323",
"i  c gray14",
"p  c #252525",
"a  c gray15",
"s  c #272727",
"d  c #282828",
"f  c gray16",
"g  c #2A2A2A",
"h  c gray17",
"j  c #2C2C2C",
"k  c #2D2D2D",
"l  c gray18",
"z  c #2F2F2F",
"x  c gray19",
"c  c #313131",
"v  c #323232",
"b  c gray20",
"n  c #343434",
"m  c #353535",
"M  c gray21",
"N  c #373737",
"B  c gray22",
"V  c #393939",
"C  c #3A3A3A",
"Z  c gray23",
"A  c #3C3C3C",
"S  c gray24",
"D  c #3E3E3E",
"F  c #3F3F3F",
"G  c gray25",
"H  c #414141",
"J  c gray26",
"K  c #434343",
"L  c #444444",
"P  c gray27",
"I  c #464646",
"U  c gray28",
"Y  c #484848",
"T  c #494949",
"R  c gray29",
"E  c #4B4B4B",
"W  c #4C4C4C",
"Q  c gray30",
"!  c #4E4E4E",
"~  c gray31",
"^  c #505050",
"/  c #515151",
"(  c gray32",
")  c #535353",
"_  c gray33",
"`  c #555555",
"'  c #565656",
"]  c gray34",
"[  c #585858",
"{  c gray35",
"}  c #5A5A5A",
"|  c #5B5B5B",
" . c gray36",
".. c #5D5D5D",
"X. c gray37",
"o. c #5F5F5F",
"O. c #606060",
"+. c gray38",
"@. c #626262",
"#. c gray39",
"$. c #646464",
"%. c #656565",
"&. c gray40",
"*. c #676767",
"=. c #686868",
"-. c DimGray",
";. c #6A6A6A",
":. c gray42",
">. c #6C6C6C",
",. c #6D6D6D",
"<. c gray43",
"1. c #6F6F6F",
"2. c gray44",
"3. c #717171",
"4. c #727272",
"5. c gray45",
"6. c #747474",
"7. c gray46",
"8. c #767676",
"9. c #777777",
"0. c gray47",
"q. c #797979",
"w. c gray48",
"e. c #7B7B7B",
"r. c #7C7C7C",
"t. c gray49",
"y. c #7E7E7E",
"u. c gray50",
"i. c #808080",
"p. c #818181",
"a. c gray51",
"s. c #838383",
"d. c #848484",
"f. c gray52",
"g. c #868686",
"h. c gray53",
"j. c #888888",
"k. c #898989",
"l. c gray54",
"z. c #8B8B8B",
"x. c gray55",
"c. c #8D8D8D",
"v. c #8E8E8E",
"b. c gray56",
"n. c #909090",
"m. c gray57",
"M. c #929292",
"N. c #939393",
"B. c gray58",
"V. c #959595",
"C. c gray59",
"Z. c #979797",
"A. c #989898",
"S. c gray60",
"D. c #9A9A9A",
"F. c #9B9B9B",
"G. c gray61",
"H. c #9D9D9D",
"J. c gray62",
"K. c #9F9F9F",
"L. c #A0A0A0",
"P. c gray63",
"I. c #A2A2A2",
"U. c gray64",
"Y. c #A4A4A4",
"T. c #A5A5A5",
"R. c gray65",
"E. c #A7A7A7",
"W. c gray66",
"Q. c #A9A9A9",
"!. c #AAAAAA",
"~. c gray67",
"^. c #ACACAC",
"/. c gray68",
"(. c #AEAEAE",
"). c #AFAFAF",
"_. c gray69",
"`. c #B1B1B1",
"'. c #B2B2B2",
"]. c gray70",
"[. c #B4B4B4",
"{. c gray71",
"}. c #B6B6B6",
"|. c #B7B7B7",
" X c gray72",
".X c #B9B9B9",
"XX c gray73",
"oX c #BBBBBB",
"OX c #BCBCBC",
"+X c gray74",
"@X c gray",
"#X c gray75",
"$X c #C0C0C0",
"%X c #C1C1C1",
"&X c gray76",
"*X c #C3C3C3",
"=X c gray77",
"-X c #C5C5C5",
";X c #C6C6C6",
":X c gray78",
">X c #C8C8C8",
",X c gray79",
"<X c #CACACA",
"1X c #CBCBCB",
"2X c gray80",
"3X c #CDCDCD",
"4X c #CECECE",
"5X c gray81",
"6X c #D0D0D0",
"7X c gray82",
"8X c #D2D2D2",
"9X c LightGray",
"0X c gray83",
"qX c #D5D5D5",
"wX c gray84",
"eX c #D7D7D7",
"rX c #D8D8D8",
"tX c gray85",
"yX c #DADADA",
"uX c gray86",
"iX c gainsboro",
"pX c #DDDDDD",
"aX c gray87",
"sX c #DFDFDF",
"dX c gray88",
"fX c #E1E1E1",
"gX c #E2E2E2",
"hX c gray89",
"jX c #E4E4E4",
"kX c gray90",
"lX c #E6E6E6",
"zX c #E7E7E7",
"xX c gray91",
"cX c #E9E9E9",
"vX c #EAEAEA",
"bX c gray92",
"nX c #ECECEC",
"mX c gray93",
"MX c #EEEEEE",
"NX c #EFEFEF",
"BX c gray94",
"VX c #F1F1F1",
"CX c gray95",
"ZX c #F3F3F3",
"AX c #F4F4F4",
"SX c gray96",
"DX c #F6F6F6",
"FX c gray97",
"GX c #F8F8F8",
"HX c #F9F9F9",
"JX c gray98",
"KX c #FBFBFB",
"LX c gray99",
"PX c #FDFDFD",
"IX c #FEFEFE",
"UX c white",
/* pixels */
"UXDXMXDXIXSXBXKXPXNXAXIXSXNXGXUXnXAXUXJXNXHXUXNXBXIXHXBXHXUXSXnXUXGXmXAXPXAXNXPXPXNXAXIXSXNXGXUXnXAXUXJXNXHXUXNXBXIXHXBXHXUXSXnXUXGXmXAXPXAXNXPXJXCXAXLXGXNXAXUX",
"KXJXAXZXGXFXAXGXDXZXGXKXAXAXJXHXSXZXHXHXVXSXKXDXFXKXSXCXHXHXZXAXHXJXAXAXKXGXCXDXDXZXGXKXAXAXJXHXSXZXHXHXVXSXKXDXFXKXSXCXHXHXZXAXHXJXAXAXKXGXCXDXFXSXFXGXAXAXHXLX",
"MXZXPXGXMXGXIXVXCXIXHXNXDXKXSXBXUXGXBXDXIXSXBXKXKXBXSXIXDXBXGXUXMXSXPXFXNXGXPXCXCXIXHXNXDXKXSXBXUXGXBXDXIXSXBXKXKXBXSXIXDXBXGXUXMXSXPXFXNXGXPXCXVXPXGXNXGXPXAXMX",
"ZXCXGXJXAXSXHXSXFXHXSXZXDXDXAXSXHXJXDXSXJXGXAXDXSXAXGXHXDXDXHXHXAXAXFXFXAXSXHXGXFXHXSXZXDXDXAXSXHXJXDXSXJXGXAXDXSXAXGXHXDXDXHXHXAXAXFXFXAXSXHXGXDXFXDXDXGXFXAXCX",
"UXHXMXAXUXSXNXPXKXnXSXUXDXNXHXIXmXSXUXFXmXFXUXCXVXUXFXbXGXIXAXmXUXHXNXSXUXDXmXLXKXnXSXUXDXNXHXIXmXSXUXFXmXFXUXCXVXUXFXbXGXIXAXmXUXHXNXSXUXDXmXLXIXnXSXUXCXmXKXUX",
"FXSXGXGXZXFXKXAXAXHXFXAXHXJXSXAXDXJXAXAXKXDXVXJXHXZXSXHXDXSXFXFXDXDXGXFXAXGXJXAXAXHXFXAXHXJXSXAXDXJXAXAXKXDXVXJXHXZXSXHXDXSXFXFXDXDXGXFXAXGXJXAXAXJXFXZXFXGXDXDX",
"mXCXUXKXmXGXUXBXZXUXFXnXGXIXZXMXPXLXNXZXUXDXvXLXJXmXDXUXSXBXJXUXMXZXPXGXnXFXUXZXZXUXFXnXGXIXZXMXPXLXNXZXUXDXvXLXJXmXDXUXSXBXJXUXMXZXPXGXnXFXUXZXBXUXGXnXKXUXVXmX",
"LXLXNXCXUXDXmXIXPXnXGXUXBXMXPXLXVXAXPXGXmXDXIXVXBXUXDXbXKXIXVXZXJXLXNXCXUXFXbXPXPXnXGXUXBXMXPXLXVXAXPXGXmXDXIXVXBXUXDXbXKXIXVXZXJXLXNXCXUXFXbXPXPXNXDXUXZXBXJXPX",
"LXJXVXAXIXSXNXIXKXMXDXUXSXVXHXKXVXZXLXGXMXFXUXVXCXUXDXmXHXPXZXBXLXHXBXAXUXDXMXLXKXMXDXUXSXVXHXKXVXZXLXGXMXFXUXVXCXUXDXmXHXPXZXBXLXHXBXAXUXDXMXLXLXMXSXIXAXBXJXLX",
"mXVXUXLXnXFXUXVXCXUXDXvXJXIXVXNXPXKXMXZXUXFXbXKXKXbXFXUXZXMXLXUXMXVXUXJXvXDXUXCXCXUXDXvXJXIXVXNXPXKXMXZXUXFXbXKXKXbXFXUXZXMXLXUXMXVXUXJXvXDXUXCXBXUXFXnXLXUXBXnX",
"DXDXGXFXZXFXJXSXAXJXFXAXGXHXSXSXFXFXAXSXJXDXAXHXGXZXDXHXAXZXGXKXAXSXJXJXAXFXHXAXAXJXFXAXGXHXSXSXFXFXAXSXJXDXAXHXGXZXDXHXAXZXGXKXAXSXJXJXAXFXHXAXAXJXFXZXFXHXSXSX",
"UXKXmXCXUXDXmXPXLXnXDXUXSXNXJXIXNXZXIXHXbXFXUXVXBXUXGXvXGXIXZXVXIXJXNXSXUXDXnXLXLXnXDXUXSXNXJXIXNXZXIXHXbXFXUXVXBXUXGXvXGXIXZXVXIXJXNXSXUXDXnXLXIXnXSXUXZXMXKXUX",
"CXAXFXGXDXDXFXDXGXGXSXSXFXGXSXZXJXGXDXDXHXGXDXSXSXDXGXHXFXDXGXHXSXSXDXDXSXDXGXGXGXGXSXSXFXGXSXZXJXGXDXDXHXGXDXSXSXDXGXHXFXDXGXHXSXSXDXDXSXDXGXGXDXFXDXDXHXGXAXVX",
"MXAXPXGXNXGXPXVXCXPXFXNXGXIXAXmXUXHXBXSXIXSXBXKXLXBXSXUXDXVXGXPXBXSXLXDXNXHXIXVXCXPXFXNXGXIXAXmXUXHXBXSXIXSXBXKXLXBXSXUXDXVXGXPXBXSXLXDXNXHXIXVXVXPXGXNXHXIXAXmX",
"KXHXSXAXFXDXSXGXSXAXFXJXDXSXGXHXSXDXGXDXZXSXHXGXGXHXSXZXFXGXSXZXHXGXSXDXHXFXAXSXSXAXFXJXDXSXGXHXSXDXGXDXZXSXHXGXGXHXSXZXFXGXSXZXHXGXSXDXHXFXAXSXFXSXFXGXSXSXHXKX",
"UXSXBXHXKXZXCXKXKXCXZXKXFXNXAXUXnXHXIXSXVXHXKXCXVXKXJXCXSXPXHXmXUXSXVXHXJXVXVXLXKXCXZXKXFXNXAXUXnXHXIXSXVXHXKXCXVXKXJXCXSXPXHXmXUXSXVXHXJXVXVXLXJXCXAXLXHXBXSXUX",
"bXHXIXSXVXHXKXZXCXKXHXVXSXIXHXnXUXAXNXFXKXZXCXKXLXVXVXJXHXVXSXUXmXHXPXSXCXJXKXVXCXKXHXVXSXIXHXnXUXAXNXGXKXZXCXLXLXCXZXKXGXBXAXUXMXFXPXGXVXFXKXDXCXIXKXnXHXUXmXAX",
"VXAXHXHXSXDXGXDXGXHXSXZXDXGXDXSXHXGXSXDXJXFXAXSXSXAXFXHXDXSXGXHXZXSXGXFXZXSXHXGXGXHXSXZXDXGXDXSXGXGXDXFXHXFXAXDXSXAXGXJXDXSXGXHXHXCXDXHXCXSXJXVXGXFXFXSXZXDXIXMX",
"UXHXBXSXIXSXBXLXKXBXSXIXSXBXHXUXmXAXIXGXNXFXPXCXVXIXHXNXDXLXSXBXPXGXVXDXUXSXBXLXKXBXSXIXSXBXHXUXmXSXIXGXMXFXPXCXVXIXGXNXFXPXSXVXPXGXCXDXLXDXZXUXJXNXHXPXHXCXLXKX",
"KXHXDXSXFXFXDXFXSXDXGXHXDXDXGXJXZXSXGXFXSXSXGXGXGXGXDXSXDXDXSXSXHXGXDXFXHXGXDXSXSXDXGXHXDXDXGXJXZXSXGXFXAXAXFXGXFXFXSXAXDXFXDXSXZXPXGXCXHXGXCXSXKXAXDXDXLXZXDXJX",
"mXCXUXKXnXGXUXNXVXUXFXbXHXIXZXNXIXJXNXSXUXDXnXLXLXnXDXUXSXNXJXIXVXZXIXGXvXGXUXBXVXUXFXbXHXIXZXNXUXKXNXAXUXSXbXLXLXbXSXUXAXNXJXIXZXNXHXJXNXFXUXZXvX0Xx.w.rXUXMXMX",
"FXFXSXDXJXDXZXHXHXAXDXJXSXAXFXFXSXSXHXGXAXFXJXAXAXHXFXAXJXJXSXAXKXGXZXAXHXDXZXGXHXAXDXJXSXAXFXFXDXDXGXFXZXFXJXAXAXHXDXAXGXHXSXAXJXFXHXGXJXPXrXF.R 6 9 > =.ZXJXHX",
"UXLXMXCXUXSXnXPXKXbXFXUXZXMXKXPXNXVXIXJXvXDXUXCXCXUXDXvXJXUXVXMXUXLXMXZXUXFXbXKXKXbXFXUXZXMXKXPXBXCXPXHXvXFXUXCXVXUXFXvXHXIXCXVXUXHXZXxXXX&.a 3 U k.8X` H cXLXLX",
"BXZXPXJXMXFXIXBXVXUXFXMXGXLXZXVXKXHXVXSXUXDXMXKXLXMXDXUXAXBXHXLXBXZXPXHXmXDXUXCXVXUXFXMXGXLXZXVXLXHXBXAXUXFXNXLXJXMXFXUXZXNXKXUXmX;Xa.C 5 c 4.R.}.E.e.a } FXGXNX",
"VXZXPXHXMXFXIXBXBXIXHXnXHXJXFXCXJXJXVXCXUXSXDXKXKXSXJXJXSXZXSXLXVXCXUXCXVXHXJXSXCXUXFXmXHXPXZXBXIXZXZXDXKXKX).*XIXCXSXUXKXNXuXP.Q 0 q U =.9.$.Q T =.8.4 T BXDXCX",
"UXLXMXVXUXDXnXPXJXAXZXPXLXBXDXJXVXBXUXFXBXMXiX6X:X3XpXbXFXPXSXVXUXGXMXDXUXBXNXKXKXnXFXUXZXNXLXIXBXGXJXFXZX+Xj @.AXJXLXaX`.*.j 6 F [ ' E ` 4.U.wXmXNXSXs.6 v.PXKX",
"FXGXAXSXJXDXZXGXHXVXFXKXBXVXKXIXDXJXSXqXc.! l 3 < 7 s Y b.wXZXHXAXSXFXSXJXAXAXJXHXAXDXHXSXAXGXHXZXCXHXPXpXS O h 6X2Xk.z 1 b :.p.] ^ s.R.k.,XKX4XyXSXBXDXL ^ HXGX",
"mXCXUXJXnXGXUXNXAXKXJXnXGXUXZXzXJXpX8.r .   # O X # % . X i q.tXGXGXLXHXBXHXUXbXVXUXFXbXHXUXZXMXPXIXVXfXo.0 e.1 b w w ..E.E.*.^ p.yXE.Q V.MXGX] *.UXKXcXE 1 U.NX",
"LXHXSXAXFXFXDXFXSXFXSXDXPXNXKXJX].Z . O % % . @ @ . o % $   * v R.AXJXBXDXAXGXSXSXSXFXHXFXFXFXFXSXSXAXu.2 D.BX) F m.oX|.&.T v.3X} 7.x.u Z.}.BX2X7XGXHXDX8XU f 0X",
"UXHXNXSXIXDXBXLXHXBXSXIXZXSXVXS.7 . %   O % + % @ & % . O & O O 8 b.cXKXKXDXbXUXKXNXSXIXDXBXGXPXZXZXD.1 7.CXCX).v.0._ ) V.MXSX>X> i (.l z 2.>XJXLXHXmXZX].v O f.",
"CXAXHXHXSXDXGXDXGXHXGXCXGXAXv.i -.2 @ $ $ . % o O o @ @ # $ O #   , j.BXFXJXGXCXFXHXDXZXDXFXDXDXHX|.y _ 5XV.o...t.P.>Xu.| @XUXP.n d &.4.y 9.hXgX^.h.%.H f _ d m ",
"nXHXIXSXVXHXKXZXMXPXGXBXFXJ.r P.,X6   @ @ + # + $ + $ @ O $ @ + *   > A.nXSXUXVXBXKXKXCXZXLXJXVXqXx & { ' d.oX9XK.6.#X3.  e d.$.q.v.l ^.#XZX;XD A ] &.X.~ k < N ",
"IXDXBXGXIXAXNXLXGXBXDXPXOXp b.UX*X1 O # # @ # + @ @ @ @ @ @ @ @ $ o + 8 .XKXmXLXPXBXCXUXBXCXLXhXU O ) }.9X1XdX} y.7.x U.p Q K % U.zX5XVXpXn.n u.#Xa.K 2 t *.{.mX",
"JXHXAXAXGXFXAXGXLXDXDXaXD %.AXGX;X3 O + O + # @ @ @ @ @ @ @ @ @ @ # + . A 8XKXDXKXVXVXUXFXSXSX=.3 x.VXOX@XM U.b H.cXz F.4.b XXL.tXhXY.O.V b { ` r , ( 8 <.SXPXJX",
"NXAXPXGXMXFXIXVXMXKXHX3.V gXAXDX:X5 @ @ + @ $ # @ @ @ @ @ @ @ @ o * $ @ X 6.FXZXbXUXKXmXJXDXu.; Z.HX3XA P.T ! [ I '.V {.aX/.9XP.#.Y H ^ B a 5 V 8.} fX^ q.UXAXmX",
"AXZXGXHXAXSXHXSXAXKXXXa /.LXAXFX=X2 + $ # # $ @ @ @ @ @ @ @ @ @ # $ X # @ 3 {.PXFXAXJXAXHXQ.3 7.VXDXPX@.c _ e ~.-.+.j.;XC.@.E  .<._ m 5 a : O.xXzX%.tXR 2.GXKXAX",
"UXHXMXAXUXSXMXKXPXbXR #.ZXxXUXIX&X1 O @ @ + @ O @ @ @ @ @ @ @ @ $ O + + @   Q nXUXBXDXHX#Xe ` vXSXBXLX(.9 `.-.W.mX!.&.W <.A.p.( r u z s +XS | IXLX .+X( 4.NXHXIX",
"DXSXHXGXZXFXJXZXJX!.u *XHXUXbXLX:X4 + @ O + @ + @ @ @ @ @ @ @ @ @ o * % # # - E.SXHXFXrXn y @XBXZXIXGXSX-.N.CXeX<.` K.W.>.f 6 A s.1XI.V sXK ) NXVX=.Q.~ 7.KXZXFX",
"nXCXUXKXnXFXUXVXxX/ -.mXSXUXZXZX>X5 @ # + @ $ @ @ @ @ @ @ @ @ @ $ O @ O + X o ! bXKXSX,.- < s A $.z.L.=XwX#Xd.} M.kXtXs 8 >..XMXDXDX.Xg wXL _ mXAX7.c.R 7.UXZXNX",
"KXLXBXVXUXSXMXUX%Xr $XUXZXAXGXIX*X2 + # @ @ @ O @ @ @ @ @ @ @ @ @ + % @ # $ + -  XDXVXgX-XK.y.o.A w 5 7 y 3 - X.!.1XpX! n NXGXZXGXUXI.b aXF { KXUX0.0.^ 2.AXHXKX",
"LXJXCXVXUXZXCXJX>./ MXKXKXmXPXPX*X2 + # @ @ @ O @ @ @ @ @ @ @ @ @ @ @ @ @ @ + + %.BXZXUXGXAXLXJXcXrX;XR.w...L i 9 6 g 7 < |.GXNXKXPXQ.v rXA O.LXLX4.9.W 4.VXLXKX",
"nXGXUXSXBXFXUXrXl E.UXbXFXUXVXZX>X5 @ # + @ $ @ @ @ @ @ @ @ @ @ @ @ @ @ @ @ + + d aXKXMXFXKXZXZXKXLXVXDXUXSXsXjX;XH.e.#.V g.PXUXNXKX(.l ,Xz 0.DXZX .y.W 0.UXBXBX",
"SXSXGXHXZXGXPXH.f aXLXZXAXLXCXKX:X4 + @ O + @ + @ @ @ @ @ @ @ @ @ @ @ @ @ @ + + $ H.JXZXFXKXGXZXHXKXFXSXJXHXDXFXHXHXKXHXlXaXUXVXDXHX^.b :Xs s.HXlXD J.Q 6.PXBXGX",
"UXDXmXFXPXSXbX..=.vXZXIXDXMXJXUX&X1 O @ @ + @ O @ @ @ @ @ @ @ @ @ @ @ @ @ @ @ @ o ) DXUXCXmXLXIXMXVXPXJXnXSXUXZXBXIXGXmXJXUXNXAXUXHXQ.N ,Xg j.UX;Xl :X~ 2.VXJXUX",
"ZXHXDXAXGXGXaXz P.LXHXCXJXFXFXAX=X2 + $ # # $ @ @ @ @ @ @ @ @ @ @ @ @ @ @ @ @ @ + s tXSXDXSXGXSXGXSXSXGXHXDXAXGXDXHXBXGXSXGXFXGXDXHX^.x %Xf F.PXb.F hXQ 8.SXLXCX",
"MXSXPXDXCXKX+Xs 4XUXJXMXJXIXVXSX:X5 @ @ + @ $ # @ @ @ @ @ @ @ @ @ @ @ + @ @ @ @ # > /.VXKXIXFXmXIXKXVXZXKXDXVXLXJXZXSXPXAXBXJXJXBXHX_.x %Xt J.GX[ -.CXR 9.PXDXmX",
"JXZXDXGXFXGXp.Y VXAXZXJXSXSXSXUX;X3 O + O + # @ @ @ @ @ @ @ @ @ @ @ + + + @ @ # o O i.UXSXBXHXKXBXDXKXHXSXGXGXCXDXDXKXCXGXKXVXZXGXKX~.b qXm r.VXD f.DXR 3.FXFXGX",
"UXGXBXAXPXZX~ 5.PXVXSXUXZXNXPXPX*X1 O # # @ # + @ @ @ @ @ @ @ @ @ @ + + + @ @ # @ o ! FXDXCXHXUXNXGXKXAXCXGXKXSXSXPXSXCXDXPXAXCXLXUXY.z zX .' vXZ f.CXQ 3.NXLXIX",
"BXNXUXJXNXhXN F.CXUXHXNXHXKXAXDX:X4 # O + # @ O @ @ @ @ @ @ @ @ @ @ @ @ @ @ @ @ $ + d tXJXIXNXVXUXAXNXFXKXZXCXKXLXVXVXJXHXVXSXUXAXZX`.x uXg.H dX~ o.GXI 8.UXVXBX",
"SXFXGXCXFX<Xj %XKXJXAXCXGXHXAXAX2X1 o + # %   * @ @ @ @ @ @ @ @ @ @ @ @ @ @ @ @ o @ 2 ;XGXHXHXAXHXGXSXDXJXFXAXSXSXAXFXHXDXSXGXHXCXLXQ.z lXM.B vXc.j 0XE 5.LXAXAX",
"IXGXVXAXUX^.j lXLXMXDXUXAXVXLXUX&X: # *   % % + @ @ @ @ @ @ @ @ # # # # # # # # $ @ $ ).HXVXFXLXmXAXIXGXNXFXPXCXVXIXHXNXDXLXSXBXLXIXR.c bXu.P JX9Xq A.! <.SXGXLX",
"FXAXGXHXJXv.G NXFXSXGXFXVXCXGXJX,X2   & + O * X # # # # # # # # @ @ @ @ @ @ @ @ #   X x.FXGXCXJXZXSXGXFXSXSXGXGXGXGXDXSXDXDXSXSXKXDX(.b pX( r.JXZX( / P 3.HXFXFX",
"nXAXUXDXMX3.{ NXmXUXDXnXIXUXCXCX%X6 @ O % O @ @ @ @ @ @ @ @ @ @ @ @ @ @ @ @ @ @ $ @ X >.FXUXSXMXIXJXNXSXUXDXnXLXLXnXDXUXSXNXJXIXNXSX'.b $Xm +XCXFXM.r n 9.IXSXmX",
"HXFXAXSXFX .<.JXHXFXDXSXZXCXFXUX3X3 % O o % # + @ @ @ @ @ @ @ @ @ @ @ @ @ @ @ @ o #   { DXSXGXDXSXSXHXGXAXFXJXAXAXHXFXAXJXJXSXAXHXPXW.b J.Z gXGXHX(.7 s 4.GXFXGX",
"UXGXNXGXKXE s.UXPXnXDXUXZXSXUXDXY.;   @ o @ O + O O O O O O O O O O O O O O O O @ # X I mXNXGXUXNXVXIXJXvXDXUXCXCXUXDXvXJXUXVXMXUXIXE.b w.$.VXLXLXW.e a 3.AXGXUX",
"mXJXKXDXxXD C.DXCXKXJXSXFXjXL.[ a k k k g j h k j j j j j j j j j j j j j j j j j a t C zXUXDXVXKXHXVXSXUXDXMXKXLXMXDXUXAXBXHXLXBXSX'.x X.b.LXZXHXS.0 g r.LXAXVX",
"DXBXIXGXjXB J.HXAXUXbX|.6.v l @. XtXfXpXzXgXyXzXlXtXdXbXfXpXjXjXsXpXkXjXyXfXxXiXdXxXH.b fXUXGXVXKXGXBXAXIXSXMXLXKXBXAXPXDXBXDXLXVXFX'.c _ /.KXDXZXy.b Z 9.UXBXCX",
"GXUXmXJXxXn `.JXrXj.G h Y m.uXLXMXFXUXKXMXHXUXNXAXUXHXmXPXUXAXVXUXIXVXZXUXJXMXKXPXCX/.v jXAXFXUXCXGXPXGXZXJXPXAXZXUXJXVXJXIXDXZXUXUXQ.j | [.GXPXUXQ *.! 3.VXHXIX",
"<X>X%X:X.Xr &.o.d D e.*XmXJXLXPXGXZXAXDXZXDXJXGXZXGXDXCXDXFXAXAXAXFXAXZXFXDXZXDXSXHXOXy Q.&X,X>X@X$X>X:X@X*X,X%X$X<X*X+X>X,X#X#X>X:Xf.j E d.'.+X_.v 6.A 4.DXLXFX",
"b x b g z g l o./.kXUXSXGXPXAXnXKXJXVXDXUXDXMXPXPXmXGXUXSXNXKXUXBXZXUXLXmXFXUXSXCXUX-Xf n v c z b v x v n c x b b x c b v x c b l n c t a h x j f u z e z.PXBXMX",
"yXeXeXiXiX0XaXVXUXSXZXGXFXDXFXGXAXFXHXDXZXFXFXNXGXGXDXAXDXDXSXAXHXSXAXFXHXSXZXDXGXDXMXyXuXeXrXuXeXiXtX0XwXuXtXwXwXtXuXeX0XtXiXwXpX9XqXiXpXeXeXtXyXtXqXgXfXAXPXSX",
"UXUXNXAXJXUXmXUXKXCXDXLXSXCXJXPXBXAXKXDXBXJXUXZXCXIXGXNXGXIXSXNXPXJXVXAXPXFXVXJXKXMXAXUXDXnXJXUXAXSXLXJXCXGXPXAXSXLXGXZXHXLXDXAXUXPXDXDXKXFXAXJXPXAXCXKXIXVXAXUX",
"BXBXPXDXDXZXIXNXCXKXFXCXHXKXSXZXHXJXSXSXJXSXVXHXSXAXFXJXFXSXFXGXZXFXHXSXZXFXJXDXDXDXFXCXFXKXJXVXHXCXSXKXFXZXDXGXHXAXAXGXJXSXAXGXMXDXHXAXSXFXHXFXAXJXKXMXDXFXVXDX",
"AXNXUXHXMXGXUXZXAXLXDXBXHXKXAXCXPXGXVXDXIXSXNXKXLXCXZXKXHXBXSXUXmXFXLXFXAXHXHXCXBXPXLXnXKXIXMXCXIXKXBXCXIXFXBXJXLXmXFXUXBXBXPXLXAXCXIXHXNXDXUXBXNXUXZXSXSXUXDXMX",
"UXAXNXGXLXAXCXJXLXVXVXJXHXVXSXUXmXGXLXSXAXPXLXNXVXLXLXZXAXLXGXmXUXSXVXHXJXVXVXLXLXVXVXJXHXVXSXUXmXGXLXSXAXPXLXNXVXLXLXZXAXLXGXmXUXSXVXHXJXVXVXLXLXVXCXKXHXVXSXUX",
"KXHXAXAXGXFXSXFXSXAXFXHXDXSXGXHXAXSXFXFXAXFXHXFXGXHXDXAXFXGXSXAXHXGXSXDXHXFXAXSXSXAXFXHXDXSXGXHXAXSXFXFXAXFXHXFXGXHXDXAXFXGXSXAXHXGXSXDXHXFXAXSXGXSXDXFXAXAXHXKX",
"mXAXPXGXNXGXPXVXVXIXHXNXDXLXSXBXIXHXVXDXIXSXNXLXLXNXAXIXFXVXGXPXBXSXLXDXNXHXIXVXVXIXHXNXDXLXSXBXIXHXVXDXIXSXNXLXLXNXAXIXFXVXGXPXBXSXLXDXNXHXIXVXBXIXHXBXFXLXAXNX",
"VXAXGXGXDXDXFXDXGXGXDXSXDXDXSXSXGXGXFXFXGXFXSXDXSXSXFXGXFXFXGXGXSXSXDXDXSXDXGXGXGXGXDXSXDXDXSXSXGXGXFXFXGXFXSXDXSXSXFXGXFXFXGXGXSXSXDXDXSXDXGXGXSXFXFXFXFXDXAXZX",
"UXKXmXCXUXDXnXPXLXnXDXUXSXNXJXIXMXZXUXHXvXFXUXVXVXUXFXvXGXIXZXNXIXJXNXSXUXDXnXLXLXnXDXUXSXNXJXIXMXZXUXHXvXFXUXVXVXUXFXvXGXIXZXNXIXJXNXSXUXDXnXLXIXnXSXUXCXMXKXUX",
"DXSXGXFXAXFXJXAXAXHXFXAXJXJXSXAXGXFXAXSXJXDXZXGXHXAXDXHXZXZXGXHXAXSXJXJXAXFXHXAXAXHXFXAXJXJXSXAXGXFXAXSXJXDXZXGXHXAXDXHXZXZXGXHXAXSXJXJXAXFXHXAXDXJXDXZXGXHXDXSX",
"mXVXUXLXmXGXUXNXCXUXDXvXJXUXVXMXIXKXNXAXUXFXbXKXKXnXFXUXZXMXLXUXMXVXUXJXvXDXUXCXCXUXDXvXJXUXVXMXIXKXNXAXUXFXbXKXKXnXFXUXZXMXLXUXMXVXUXJXvXDXUXCXVXUXDXnXLXUXVXnX",
"PXJXBXAXUXDXNXLXLXMXDXUXAXBXHXLXVXAXPXHXmXFXUXCXVXUXFXMXHXPXAXVXLXHXBXAXUXDXMXLXLXMXDXUXAXBXHXLXVXAXPXHXmXFXUXCXVXUXFXMXHXPXAXVXLXHXBXAXUXDXMXLXPXNXDXUXAXBXJXPX",
"KXKXBXZXUXFXnXPXKXMXDXUXAXBXHXLXCXCXPXJXbXDXUXBXBXUXSXbXPXUXBXVXJXJXVXAXUXSXmXPXKXMXDXUXAXBXHXLXCXCXPXJXbXDXUXBXBXUXSXbXPXUXBXVXJXJXVXAXUXSXmXPXLXMXDXIXZXBXJXPX",
"NXCXIXHXbXFXUXCXVXUXDXcXJXIXVXBXIXKXNXAXUXDXnXKXJXmXDXUXSXNXJXUXVXVXKXGXnXHXUXBXVXUXDXcXJXIXVXBXIXKXNXAXUXDXnXKXJXmXDXUXSXNXJXUXVXVXKXGXnXHXUXBXNXUXFXnXKXUXVXMX",
"DXAXGXGXZXFXKXAXZXLXFXCXHXHXAXGXFXHXSXSXJXDXCXHXHXAXDXHXAXZXGXHXDXSXHXHXZXFXKXAXZXLXFXCXHXHXAXGXFXHXSXSXJXDXCXHXHXAXDXHXAXZXGXHXDXSXHXHXZXFXKXAXAXHXFXZXFXGXDXDX",
"UXGXMXDXUXDXMXKXKXMXDXUXDXNXGXUXmXSXUXFXnXFXUXCXCXUXGXbXFXIXAXNXIXHXVXFXUXAXmXPXKXMXDXUXDXNXGXUXmXSXUXFXnXFXUXCXCXUXGXbXFXIXAXNXIXHXVXFXUXAXmXPXPXnXSXUXCXmXKXUX",
"SXZXFXGXZXSXJXFXFXHXSXZXGXGXAXSXGXJXDXSXJXGXZXDXDXAXGXJXFXFXHXGXDXAXSXDXSXFXHXDXFXHXSXZXGXGXAXSXGXJXDXSXJXGXZXDXDXAXGXJXFXFXHXGXDXAXSXDXSXFXHXDXDXFXDXDXGXGXAXCX",
"NXAXPXGXMXGXIXVXCXPXGXNXFXPXSXMXIXHXBXSXUXSXNXLXKXNXAXIXFXCXGXPXMXDXLXDXBXHXLXCXCXPXGXNXFXPXSXMXIXHXBXSXUXSXNXLXKXNXAXIXFXCXGXPXMXDXLXDXBXHXLXCXVXPXGXNXGXPXSXMX",
"HXHXAXSXJXGXZXDXDXVXGXLXAXAXKXGXAXAXHXGXZXSXJXFXFXJXSXCXHXHXZXAXSXLXDXAXKXDXBXHXDXVXGXLXAXAXKXGXAXAXHXGXZXSXJXFXFXJXSXCXHXHXZXAXSXLXDXAXKXDXBXHXFXSXFXGXAXAXHXLX",
"UXFXMXSXPXAXBXLXPXMXAXIXZXmXHXUXbXDXUXGXBXHXPXVXBXIXHXNXGXIXSXmXUXHXnXVXUXDXmXPXPXMXAXIXZXmXHXUXbXDXUXGXBXHXPXVXBXIXHXNXGXIXSXmXUXHXnXVXUXDXmXPXJXCXAXLXGXNXSXUX"
};
