/* XPM */
static char *result[] = {
/* columns rows colors chars-per-pixel */
"80 80 58 1 ",
"  c #B1C4D6",
". c #BDCBD7",
"X c #B5CBDD",
"o c #BCCDDD",
"O c #BED1DF",
"+ c #B4CEE3",
"@ c #BACFE2",
"# c #B6D2E6",
"$ c #BCD3E5",
"% c #B7D5E9",
"& c #BCD5EA",
"* c #BED8EC",
"= c #C2D2DE",
"- c #C8D6DF",
"; c #CCDADF",
": c #C3D5E4",
"> c #C9D5E4",
", c #C6D9E6",
"< c #CBDBE5",
"1 c #C2D6E9",
"2 c #C4DAEB",
"3 c #CBDDEB",
"4 c #D1DEE6",
"5 c #D1DEEB",
"6 c #C5DDF1",
"7 c #CBDEF1",
"8 c #D0DFF2",
"9 c #CDE0E7",
"0 c #CEE1ED",
"q c #D2E0E7",
"w c #D3E3ED",
"e c #D9E6EE",
"r c #D7E8EF",
"t c #DAE8EF",
"y c #C7E0F2",
"u c #CEE2F2",
"i c #CEE5F8",
"p c #CFE8FB",
"a c #D4E5F2",
"s c #D9E6F2",
"d c #D6E9F5",
"f c #DBEAF4",
"g c #D3E6F9",
"h c #D8E7F8",
"j c #D6EAF9",
"k c #DCEDF9",
"l c #DFF0F7",
"z c #DDF0FC",
"x c #E3EDEF",
"c c #E1EEF5",
"v c #E1EEF9",
"b c #E3F1F6",
"n c #EAF4F6",
"m c #E3F2FB",
"M c #EAF6FC",
"N c #E7F8FF",
"B c #ECFAFE",
"V c #F0FAFF",
/* pixels */
"dkkMd<,wdvkg3337<3wfkay9y*OX+@@@$$1@61@1&#O1<388s8s85ass<3hd3,3ag33:@11111666166",
"kfwdmh,=3hhhaaawzzlddwwy0y,27iiu76661@683:2ahd55858x8ahahhmd0232>2@@&2111&&11111",
"ddawkvd<>wfkkka3flNmzzzjdiuigkkhgppg268g3237053>5458858aa573ga3,:11121&&*&1&&1&*",
"wkkssdvd3,3skvvd<0rblflzfjdi76262218777@@38<2,:==>54o><:2,::,237211111&&&1&16&&*",
"wfkkdkMka55hhshmr<><ww039$<yag777agg333:>gh5a53w>>s5=.===@=:::::1161**&&*&&&*&**",
"3smdsfkdssass8dmffrwed0<,OOO:aa877u61337hh85<,wse5cm8>:>::1:$:1&1$$1***&**&%&&&*",
"><dwshkdaa5swasvMftbNlfkd091$:3ag87u7agavvv5sMMkx5xmvs311::11::&1&&&***&**&&&*%&",
">,5whmmka535efdsmffbltwsaa003:<7ghjkkkkfhvvs5arw5mv5>sfa7>:11@&:1&&&&&&%&*******",
"w3,9dfzf5<55scsccMMceesdddaaa331:12790ua58cs>==>45sssaah8867111&1$2%&%%&%******%",
"dwwwddfzh<5sk5svMmmmcffkkkdha38a3>:,$,,,>>55>45444-=5sh877788611$1&*&****%**%*%%",
"rf9ff<9jks3asfcvcfccfewskkdfdhaww3>,1<<$>>>588s855585>3888887771#$$*2*%$**%*%%%%",
"ww,0w9<addw3wfvcmccccssfddsasaashhs3y9,O===>=>53>558h887878h8771O1$$&*2%%%*%%%%+",
"fa<,9<<9dkhaakmbmnccccskfdswwaasssadaa99>8fs5as5hc8>3533,33u88a3<y2*:###%&%%#+++",
"zk0O,<<9dkhhssfmmMcfssfkvkdsaa5390wadad088w<5mVMMVs>5r3aa3002aa70iy321@+&%++++++",
"zzd,,<<3adkvdrfmmvcsexffkmhdsww5asw99rrrsfr<5svfvMc5rdd9wma13aaadgjdu7*@XX++++++",
"u00<$$<03akkffffMvcessfdkdssawafds3<0wwrss5q4wnMvMc5qrwjfafd3,whdzNzi<62@X++++++",
"d01$$:<y3ahkkfefbmmtesfsshshrsrdz9r0w9w0rrffe5snMMMcrrrwwddrd990skmzh,:<31##X+++",
"ii<1,$20773kvdetbmnfeckssw09,ads<90rrrw9<wtfe55eccMBbwwrrrwwwrwwskfNz0oO3i71#++#",
"3ip1111373<5dkfffbbfecca5<,33,w,<u0rrra9<9wsee5s4qbBNbrwadddrwttevemzs,o,ag3$OO%",
"13y211&*7723dmcttfcfxsks<<<wm5>,fdr000drrdsscsscqqrbNNs9r0radeeefcewdkfa,,0au9$$",
"21$$12&&6735dmfe5scvc8c8ww35d300wa0w0adashdhsdkcwqwsmmsww337rt5eccc4esdmd<<dzfy$",
"**$$111&267admbreecvvcs5ss,:,>sh99aaaga3<3ashsh8seefmmhgsa3hNfexccc5<wfmvf<9afwy",
"##O%$21$2335dmfecexcvvvsrw-=<swMf:0auha3:<aahss3se55dvmvh03avnnccMce-5MsdNe;<rjf",
"$12,**<<,<3wwfmsec5xvvcfdwoowdkmzs33gha73<58shhswaw5advkd3<amvmvcfcf>emffBnt;-ql",
"$*9%137<1,<95sffeecxexcsaa3><sfkNkd10adda0adrwawsssawwdkkw<szmmmvcvfw5fvNBBnx;-<",
"%$*,67u3,:,w33dcefsxeesa5sdw3kMzkd<><yidagjdsawaahdsawwwfdw0wvmmvssme<<sllxBBr-=",
"%$*$1786113w9wflevccccrwafvdwkmksw:210uadddswwaswdddsw3,,wfs5wkvcssme,44tlrbBbw>",
"#$%*&161123aw0rfsfccmf5wdfkkh5wdkfa3<<0udhdsasddsssdsas0,5skf<wsfffms45elbttlmfr",
"#@#&+&11123waawdkecMfe5afhkkdw3kmdkky<3y0dddsssakswdsaasasdvme<5fmvmcwqmmfftlffd",
"$$$#&##@&1233wjawsffs4wsskmkdwwsdddzzzi<30dwaddsddasawwwshskMkewfvvsfmfwtdwtdffz",
"&&$$####%1,ggaaaaw5wffssashkkswwssuajzzdds0s03wdaaassdasdsasdmfccmmmsffewww03533",
"$&&$&&&#&$,30uaa8,>wkcfdswfdsdwaaa013adjdjkdw>,wwwwwaawwadsawfvvscmMewff9<w0wdfd",
"2$$%&$##*$$,<udg,,3swsdhfddwwssrww01O:,0hfzzkdszdfssaaw3wwfsw<er44wcewfcw,3sdaaw",
"y<,*&#$&%$$1idu<00sa5asskkfda0sdw0su<1$:,9dMNdsMfdsaass33wdfd5rswwewwesfs51301OO",
"0y<*##$&%$10gd93wds3sa5afkffdsfdawadju,Oo=>rvfwdkda0wasssssdfffffffesecvms,2<1:=",
"09y<$$&@%$$yp00j0a5rd35ahkdfdffrssauadww,-O-fNMmNMmfh5asdfdfffesfrefffmBMki3<,:,",
"9,9*>&&&$$$1,<ifdw3wsw37hkffrltfsshs0wfbve4qcMMcNBNmvw5sftfbmttfcttfffmmMNf$11O,",
"*$1$111@11OX#0dgu0werw<23gjflllfdsasr09rcMcwcBc4bbbzfswwfflbbeefmcfcfbccmNf$O,$$",
",29377211$XO19dj0wassw0333rfmfcbsawsdfe94cmmccnbBNbtswwsffttcttlcfrtcbcedf<200<y",
"33yu7222:Oo$3gjka3wss0au,,9dffffeefrrdrwqweccnbcbbtew4este9ebmbfftweeff44w9$9jkz",
"303au31>@o$O<jzkh09as0au1>,wdrfkssckldrrrrrtbMbqqeq4qrtreewfbMkfesseeffeed0O:wkk",
"3auahu3@oO>:3azzka39gw03,,<sdfmmfssadlzdfdttrte4qeq<<qflwtNMmMmfefesw<459wda3:2d",
"hhkha83<,,::<dNNua310a0033ah0wdMMferjjjardffffllflfttbbbbffbmMfr5wva5444>>3adw3w",
"ahgda37aa<,wjza0,=9g1,0ua07<:><cBmswu09y9wrftrtltffttftlbbmcvswwswsvfw5<<<,30<<0",
"whhh538sdfw9dlj<l9uf<iaadh0<::=<fmbfa9<9<9wwrrrtfccfttbbnccvmvsahssMms55q355>>99",
"hgs3aassrfb><drOwdiigdirddha3<--4wffdy92<9wwrrrdfcmbfxbNffssss55fvMmvsssrwsdw5w3",
"a03wdfs9wfmffw0<9i9Xipwrdha8a83w444fjp0900rwrfzlsffftflbMMva<5<5vvvssaaawwskf33,",
"hwwdfdw<<wsdffjaau9$$ir0hka8a33rfe;3jkjwia00wfzfsfbftbbbmNmvsswwfvsswawsawsdd,>9",
"gagaa999,,933ddhhaag37777gaur099dr<<00aaddwreccccnvbnnbnllffzffecccxe58aagahs,-a",
"hah3uags,=au:wkga877387677uadr9yhgi0930stdreeessMnnnnnnnlrfffbnMxesss5aagaaaa23f",
"sgg7aadh3,0d::h38333<176*<0dz09<<3p0<235wsfteesxMxxxxnMnlflkvvMVnnvmx>>3gdgddwwd",
"zh75uads3<303o20g88gg771**20dja933<<,1,1<0sffsxcvxxexnnMNbbfvvMMMVVMh5>:3yuhda3,",
"Mh3:,3wu009w,=0u3ag830y$&1,,9jjda7<33<2<33askvccvxsxxcbnmvvvkfvMMMVx0<<<*$3000as",
"Nk8,:<00uwar,<wa:3g7$1<$11%9yuauuha335753w3a8ahsvvvMccccvvvks>5cMVM5-oOO11<0<3wr",
"jkh83aagddfww9:w3,<u7:**$y20wya9,3h238a33833<<3shvvMc8xbvvvss54etcM<==1$$$9dg<1O",
"ki278,<mNfrdmr,<w2111&9*$<,200irwwwa333588353330558vvMx8ffss5545enmm<O,$%$1,dka<",
"h2$0a<,iNMBbNb9,1,,$$19*36122238hawdwwwsdhshu<20323affffewxhv8cccftcs<=1$OO$,dks",
"a3,gj0=<kNBBBNf<3<1*$,%9i76722,19dflfffffdkzg3,<2733wrffw58shcsccfcfh3$1**300fz0",
"khakd91<0fBBBBNr91$2y*$ujj87773>,0flcffcddfzvh<,77230waww5555s85wsfw,1$#*yjzkkka",
"hg1h7<0<,wbBnmlw0,$yiy00ig7113733<wtccfcfwwfzki1113230sdew5ehfssrrfd3,,***3da0as",
"hg>g33w9>qqetr9<w21<yyu39jy$782>>>4xcxscs5<5fmd<11773aasvvsfvvksrdfra02ip2<iffsw",
"vk2g,<mmffqwqrrww0,O:900ajs08f84<4>ecxeevse4wsss:111373akvkdfhhaaar0jj<<uj0rfmks",
"<<<8umBNNBNd33wwd3,3w0,wdfffcvceq444sxeecncxeeesa7>1<3<3ghdhawwawad0091,9wrrfmcs",
"3358wfjrlbMNfww9w5<9wwwsfkkmvnmMcx54scxcccvcceeshg2>1>11<8gsuw03rrdr0,<9wtlbcmmf",
"33<3<:3aw<sfmzkswsa39hddvkfkmcmmccc4ecvcfeecceeshs02:::::3885w0wawadr090zNmmbbvv",
"8>:o:35swww33dzMkswwddddddhkfccccccescMmcfeccseshhku,:::,13330www00wrw9,wmmlffcf",
"va7:,aa30dda,3dzzdddfdgds339avcffccseecvvvffsfffdhkha3>>1<17u0wuawu0ua0<<9tfffft",
"aashw3303whddw03kzNzfjdd0,>=>fffcccw4>wsfccscffvdsshka<3<213733wuaa0wajj3-ecMbff",
"90990a23353u0aw830ajzfjdd<:$><wfvvndfw<sckfdcswcsss8kk7772121u8500uwjddww9<fNcef",
"9iwywd33=@2<37aa230<90dgjdaddd,wfdmww<3sfshkmkddsse5gha366221<3333ahjd0,35<eMcff",
"0ufz032ho O:30agau0<2930dhjzNMd<5fr,>>wdvkdMMMzsseshska7u7622:33337aau<13dffmMvk",
"<9wwdzu0$$O:2388a31,,223y333<3ds>3drw9szMkkvdhwrseekkg736uu62:1<3<33aa3>3dbmcvvv",
"2,0y9zj0#1$:1138ha3121,1*12<y,1wd<<s3<sawskds<3scs58du36366661::37378hh<1amMmmmm",
"92drO0jyo2211177zjg7222&11<00<,9zf,<>,w3>:>wh3>ssc5-<0<3*2**1:@:37873gg<=<kmmmmm",
"d<=99i22+$131@:1jji636*6*12y30a0<uf1oo,333213dg,dsa>,<$,2*6*11&:17a37aah3=3ahsfv",
"fr99,9yp1&2681@X$ugi21*****,*1y0300ju2,,33330u7<uag>,22*12**1&$&1277337hg7733asf",
"bfwa,30j1$7>2111+@18u61*$**,$199<33dgyuui0707331,ug<1<222****$$1111uu<3aghg>28we",
"bcrw3dui$:@1161:1X@17uu62$%$2$1$133<,3kNg02113<1,0d<,**212***1&111#37a338h8:,5wt",
"mmm30kjd13211111@1>$o1dpy*#1y3$OO:2a32gd3:1:112>20a,$*$<2,**11&1232137313ha<:5fm",
"cvMh3ahj9u7<::33>:782,2iiy*uzd2$:11733u32:1,>1113331,<1$***22*#$7gju333<<3ha>3mN"
};
