/* XPM */
static char *result[] = {
/* columns rows colors chars-per-pixel */
"80 80 244 2 ",
"   c #010000",
".  c #080607",
"X  c #1B1718",
"o  c #0F0F14",
"O  c #241C18",
"+  c #2F0E05",
"@  c #382306",
"#  c #2B221A",
"$  c #36291A",
"%  c #292729",
"&  c #352C28",
"*  c #3A3739",
"=  c #302D2C",
"-  c #5B0700",
";  c #551406",
":  c #480801",
">  c #661301",
",  c #721107",
"<  c #563709",
"1  c #49271B",
"2  c #4B371B",
"3  c #563B16",
"4  c #4D2C07",
"5  c #613E08",
"6  c #473928",
"7  c #593D26",
"8  c #443B34",
"9  c #423C3A",
"0  c #483B36",
"q  c #50332C",
"w  c #5A411D",
"e  c #6A4409",
"r  c #684208",
"t  c #7B4C04",
"y  c #7A4D09",
"u  c #744906",
"i  c #7C500C",
"p  c #7F5006",
"a  c #62461D",
"s  c #6D4C1A",
"d  c #684717",
"f  c #734D13",
"g  c #744F16",
"h  c #7D5413",
"j  c #75521C",
"k  c #7A551B",
"l  c #7A551A",
"z  c #5D4522",
"x  c #55432A",
"c  c #584427",
"v  c #4D4235",
"b  c #4A433C",
"n  c #5B4A33",
"m  c #574838",
"M  c #664C26",
"N  c #735322",
"B  c #795928",
"V  c #624F34",
"C  c #664537",
"Z  c #64523B",
"A  c #6A5537",
"S  c #725933",
"D  c #7E633B",
"F  c #383B44",
"G  c #413F41",
"H  c #3D414B",
"J  c #484648",
"K  c #554D47",
"L  c #5A5147",
"P  c #4A4C53",
"I  c #484C59",
"U  c #555558",
"Y  c #4F525C",
"T  c #664A47",
"R  c #6A5A49",
"E  c #635E5B",
"W  c #7C5853",
"Q  c #7C6342",
"!  c #736757",
"~  c #515664",
"^  c #696768",
"/  c #717073",
"(  c #5F626C",
")  c #913333",
"_  c #B02E34",
"`  c #80171C",
"'  c #E31829",
"]  c #F7192B",
"[  c #F82635",
"{  c #C8212D",
"}  c #845304",
"|  c #83540A",
" . c #8C5A0A",
".. c #8B5805",
"X. c #945C03",
"o. c #935E0A",
"O. c #9A5F01",
"+. c #825A1C",
"@. c #865A13",
"#. c #8A5609",
"$. c #9D6204",
"%. c #96600B",
"&. c #9C640A",
"*. c #976007",
"=. c #936213",
"-. c #986717",
";. c #8B611D",
":. c #A26504",
">. c #A66905",
",. c #AC6C03",
"<. c #A16709",
"1. c #A56A0A",
"2. c #AC6E0A",
"3. c #AA6700",
"4. c #B16E01",
"5. c #B96F00",
"6. c #AF700A",
"7. c #B57204",
"8. c #BB7502",
"9. c #B37209",
"0. c #BA7709",
"q. c #BD7909",
"w. c #BD7806",
"e. c #A56C12",
"r. c #A87116",
"t. c #B57817",
"y. c #865E28",
"u. c #915F3A",
"i. c #956927",
"p. c #896936",
"a. c #976639",
"s. c #977138",
"d. c #926929",
"f. c #AA7A30",
"g. c #C27600",
"h. c #C37B03",
"j. c #CA7E02",
"k. c #C47D09",
"l. c #C87F08",
"z. c #865D54",
"x. c #B1514D",
"c. c #84694B",
"v. c #8A725D",
"b. c #997D54",
"n. c #927051",
"m. c #A57C46",
"M. c #AB7557",
"N. c #9C6D69",
"B. c #867B6D",
"V. c #AC796E",
"C. c #AE8036",
"Z. c #CD8104",
"A. c #CC8209",
"S. c #C5800D",
"D. c #D38505",
"F. c #D78806",
"G. c #DA8A05",
"H. c #D28609",
"J. c #D58909",
"K. c #DB8C09",
"L. c #DA8702",
"P. c #E18E05",
"I. c #E39109",
"U. c #E59105",
"Y. c #A98348",
"T. c #A48353",
"R. c #B28D56",
"E. c #B98E4B",
"W. c #9B8B75",
"Q. c #918470",
"!. c #A58C67",
"~. c #B99968",
"^. c #BA8379",
"/. c #B39C7D",
"(. c #A79273",
"). c #AB9169",
"_. c #C49E67",
"`. c #C4877A",
"'. c #CBA56D",
"]. c #DBB276",
"[. c #CDA973",
"{. c #EABE7D",
"}. c #C99D53",
"|. c #EFC17E",
" X c #928D89",
".X c #B29E83",
"XX c #AD9D86",
"oX c #BAA68B",
"OX c #B8A993",
"+X c #BCB195",
"@X c #BBBAB9",
"#X c #A1A1A7",
"$X c #9C9FA8",
"%X c #C88D85",
"&X c #D69789",
"*X c #D3958F",
"=X c #E19D90",
"-X c #CBB392",
";X c #E9A397",
":X c #F6AC9C",
">X c #F8AE9E",
",X c #EEB98C",
"<X c #CCBCA3",
"1X c #C0BDBA",
"2X c #FDB3A3",
"3X c #FFB9A7",
"4X c #FDB4A9",
"5X c #FFBAA9",
"6X c #F7B0A3",
"7X c #F1ACA4",
"8X c #EAC184",
"9X c #FDCD86",
"0X c #F7CB89",
"qX c #FED48B",
"wX c #FFD98E",
"eX c #FED087",
"rX c #FEDB92",
"tX c #FFE192",
"yX c #DBC8A9",
"uX c #CEC6B7",
"iX c #E8D5B7",
"pX c #F6DDB9",
"aX c #EDCAAE",
"sX c #FCE2BD",
"dX c #F4E2BC",
"fX c #EEE2BC",
"gX c #C5C5C6",
"hX c #CDCED2",
"jX c #D4D5D9",
"kX c #CFD2D9",
"lX c #FEEBC5",
"zX c #FFEECA",
"xX c #F7E5C3",
"cX c #FFF2CC",
"vX c #FFFBD3",
"bX c #FFF5D2",
"nX c #FCECD1",
"mX c #DCDFE4",
"MX c #DDE1E8",
"NX c #FEFEFD",
"BX c #F5F7FC",
"VX c #F0EFEF",
"CX c #F3DEC1",
"ZX c None",
/* pixels */
"ZXZXZXZXZXZXZXZXZXZXZXZXZXZXZXZXZXZXZXZXZXZXZXZXZXZXZXZXZXI x z v ZXZXZXZXZXZXZXZXZXZXZXZXZXZXZXZXZXZXZXZXZXZXZXZXZXZXZXZXZXZXZXZXZXZXZXZXZXZXZXZXZXZXZXZXZXZXZX",
"ZXZXZXZXZXZXZXZXZXZXZXZXZXZXZXZXZXZXZXZXZXZXZXZXZXZXZXZXv @.8.A.8.2 ZXZXZXZXZXZXZXZXZXZXZXZXZXZXZXZXZXZXZXZXZXZXZXZXZXZXZXZXZXZXZXZXZXZXZXZXZXZXZXZXZXZXZXZXZXZX",
"ZXZXZXZXZXZXZXZXZXZXZXZXZXZXZXZXZXZXZXZXZXZXZXZXZXZXZX6 ,.K.A.A.K.w.$ ZX^ J ZXZXZXZXZXZXZXZXZXZXZXZXZXZXZXZXZXZXZXZXZXZX& % = H ZXZXZXZXZXZXZXZXZXZXZXZXZXZXZXZX",
"ZXZXZXZXZXZXZXZXZXZXZXZXZXZXZXZXZXZXZXZXZXZXZXZXZXZX0 4.P.A.J.H.A.U.y F ZXv A ZXZXZXZXZXZXZXZXZXZXZXZXZXZXZXZXZXP x h %.6.9.2. .2 I ZXZXZXZXZXZXZXZXZXZXZXZXZXZX",
"ZXZXZXZXZXZXZXZXZXZXZXZXZXZXZXZXZXZXZXZXZXZXZXZXZX* } K.0.9.1.2.6.0.7.$ ZXZX! N c.ZXZXZXZXZXZXZXZXZXZXZXZXZXJ d %.j.I.L.j.7.4.7.g.r F ZXZXZXZXZXZXZXZXZXZXZXZXZX",
"ZXZXZXZXZXZXZXZXZXZXZXZXZXZXZXZXZXZXZXZXZXZXZXZXZX6 Z.9.&.#.y p i u p u k ;.y.S e +.L ZXZXZXZXZXZXZXZXZXP s >.D.I.j.$.d.M.`.^.^.M.r.4 J ZXZXZXZXZXZXZXZXZXZXZXZX",
"ZXZXZXZXZXZXZXZXZXZXZXZXZXZXZXZXZXZXZXZXZXZXZXZX* y K.A.H.F.P.K.K.D.q.8.j Q.T.d.u *.:.N b ZXZXZXZXZXZXM 2.F.J.H.:.a.^.7X3X2X3X2X4X=Xa.O ZXZXZXZXZXZXZXZXZXZXZXZX",
"ZXZXZXZXZXZXZXZXZXZXZXZXZXZXZXZXZXZXZXZXZXZXZXZX% $.K.F.H.k.9.<.*. .*.*.| y.T.p.y | 9.H.,.f n 8 ZXA =.D.F.A.j.@.V.6X2X>X:X:X:X:X:X2X4X0 ZXZXZXZXZXZXZXZXZXZXZXZX",
"ZXZXZXZXZXZXZXZXZXZXZXZXZXZXZXZXZXZXZXZXZXZXZXZX# 5.q.o.| }  .<.9.w.q.A.H.D.D.L.I.H.A.A.H.G.8.r h k.J.A.A.j.s %X5X:X:X>X>X:X>X:X>X:X3X`.= ZXZXZXZXZXZXZXZXZXZXZX",
"ZXZXZXZXZXZXZXZXZXZXZXZXZXZXZXZXZXZXZXZXZXB.ZXZX& t  .<.0.H.J.J.J.S.1.A.A.>.:.%.2.A.A.A.A.9.$.S.G.A.A.A.H.d %X5X:X>X>X:X>X>X>X>X>X:X>X=X& ZXZXZXZXZXZXZXZXZXZXZX",
"ZXZXZXZXZXZXZXZXZXZXZXZXZXZXZXZXZXZXZXZXZX^ J # t A.F.J.H.l.l.A.F.2.:.J.2.y 1.o.e &.F.A.A.q.H.A.A.A.A.K.t N.5X:X:X:X>X>X>X>X>X>X>X:X:X:X8 ZXZXZXZXZXZXZXZXZXZXZX",
"ZXZXZXZXZXZXZXZXZXZXZXZXZXZXZXZXZXZX^ ZXZX& o.0.2.,.H.l.A.A.A.A.D.2. .I.*.&.K.J.A.} A.A.A.H.A.A.A.A.H.8.7 >X:X:X:X>X>X>X>X>X>X>X:X:X:X:X0 ZXZXZXZXZXZXZXZXZXZXZX",
"ZXZXZXZXZXZXZXZXZXZXZXZXZXZXZXZXZXZXZXF @...q.K.A.A.A.A.H.l.H.l.H.S.< H.....K.A.j. .A.A.A.A.A.H.A.A.K.u N.5X:X>X>X>X>X>X>X>X>X>X>X:X>X:X0 ZXZXZXZXZXZXZXZXZXZXZX",
"ZXZXZXZXZXZXZXZXZXZXZXZXZXZXZXZXZXZXZX4 X.S.u j.J.A.A.A.A.A.l.H.A.K...@ g < j.H.q.&.H.A.A.A.A.A.A.l.D.3 =X6X>X:X>X>X>X>X>X>X>X>X>X>X2X;X& ZXZXZXZXZXZXZXZXZXZXZX",
"ZXZXZXZXZXZXZXZXZXZXZXZXZXZXZXZXZXZXa L.&.t z A ,.H.A.A.A.A.A.l.H.8.Y.@XmXhXp.j.A.A.A.A.A.A.H.A.A.A.5.C 2X:X>X>X>X>X>X>X>X>X>X>X:X:X3X`.= ZXZXZXZXZXZXZXZXZXZXZX",
"ZXZXZXZXZXZXZXZXZXZXZXZXZXZXZXZXZX* :.K.g.R MXNX! 8.H.A.A.H.l.H.8./.BXNXNXNX X3.J.A.A.A.A.A.A.A.A.J.O.z.4X:X:X:X>X>X>X>X>X>X>X>X>X:X5XN.% ZXZXZXZXZXZXZXZXZXZXZX",
"ZXZXZXZXZXZXZXZXZXZXZXZXZXZXZXZXZXm h.F.@.MXNXNX1XO.K.A.A.A.H.g./.NXNXNXNXNX X4.J.A.A.A.H.A.A.A.A.K...z.4X:X>X>X:X:X>X:X>X>X>X>X>X:X3XC ZXZXZXZXZXZXZXZXZXZXZXZX",
"ZXZXZXZXZXZXZXZXZXZXZXZXZXZXZXZXZX2 H.8.W.NXNXNXhXo.J.A.A.A.j.f.BXNXNXNXNXNXb.j.A.A.A.A.A.A.A.H.A.H.,.C 4X:X:X:X2X2X:X>X>X>X>X:X:X6X=X* ZXZXZXZXZXZXZXZXZXZXZXZX",
"ZXZXZXZXZXZXZXZXZXZXZXZXZXZXZXZXZX7 A.3.uXNXBXNXhX&.J.A.A.H.4.1XNXNXNXNXNXjXe.F.A.A.A.A.A.A.A.A.A.A.J.y N.6X4X4X&XN.>X:X>X>X>X>X:X5Xz.F ZXZXZXZXZXZXZXZXZXZXZXZX",
"ZXZXZXZXZXZXZXZXZXZXZXZXZXZXZXZXZXv w.1.kXNXNXNX1X,.H.A.A.D.s.BXNXNXNXNXNX(.g.A.A.A.H.A.A.A.A.A.A.A.A.F.:.;.M.i.7 %X2X:X>X>X:X:X>X;X8 ZXZXZXZXZXZXZXZXZXZXZXZXZX",
"ZXZXZXZXZXZXZXZXZXZXZXZXZXZXZXZXZX* 1.1.kXNXgXhXOX8.H.A.A.g.(.BX@XBXNXNXmXe.F.A.A.A.A.H.A.A.A.A.A.A.A.:.e.9.=.z.=X4X:X>X>X>X>X:X5XW P ZXZXZXZXZXZXZXZXZXZXZXZXZX",
"ZXZXZXZXZXZXZXZXZXZXZXZXZXZXZXZXZXZXk ,.kXVX. F T.j.A.A.H.4.OX/   $XNXNX!.g.A.A.A.A.A.A.A.A.A.H.A.A.H.q.7 =X;X4X2X:X>X>X:X>X:X3X`.J ZXZXZXZXZXZXZXZXZXZXZXZXZXZX",
"ZXZXZXZXZXZXZXZXZXZXZXZXZXZXZXZXZXZXz >.gX1X  o -.F.l.A.H.h.Q.X   ^ NXgX2.J.A.A.A.A.A.A.A.A.A.A.A.A.A.G.r *X>X:X:X>X:X:X:X:X2X;X0 ZXZXZXZXZXZXZXZXZXZXZXZXZXZXZX",
"ZXZXZXZXZXZXZXZXZX/ ^ ZXZXZXZXZXZXZXR ,./.gX  + l.A.l.A.H.l.A o    XNXC.h.k.A.A.A.H.H.H.H.H.H.A.A.A.A.J.5 .X2X:X>X:X:X:X:X2X:Xm ZXZXZXZXZXZXZXZXZXZXZXZXZXZXZXZX",
"ZXZXZXZXZXZXZXZXZXZXZXZX^ E ^ ZXZXZXN L.r.$X. < G.D.F.D.g.j.5   . jXuX:.h.A.H.A.k.k.9.9.7.2.9.q.A.A.A.F.< *X2X:X:X>X>X:X2X:XT Y ZXZXZXZXZXZXZXZXZXZXZXZXZXZXZXZX",
"ZXZXZXZXZXZXZXZXZXZXZXZXZXZXZXE 6 d q.3.Q +XOXZ k i.-.t.}.'.[.OX<XzXT.4.0.6.1.:.:.2.2.9.8.k.k.A.A.A.A.w.1 ;X>X:X>X:X:X5X=Xm ZXZXZXZXZXZXZXZXZXZXZXZXZXZXZXZXZXZX",
"ZXZXZXZXZXZXZXZXZXZXZXZXZXZXZXs 7.7.X.c xXvXR H $X$XH . iXbXzXlXsXoX} 9.0.k.A.H.J.J.J.H.H.A.A.A.A.A.G.} T 3X:X:X:X2X2X^.G ZXZXZXZXZXZXZXZXZXZXZXZXZXZXZXZXZXZXZX",
"ZXZXZXZXZXZXZXZXZXU K ^ U P # X.2.1.,.p.lXsXW..   . & W.sXsXsXpXyXB.X.q.2.2.2.9.7.w.k.A.A.A.A.A.A.A.H.@ %X6X:X3X3X%XR = ZXZXZXZXZXZXZXZXZXZXZXZXZXZXZXZXZXZXZXZX",
"ZXZXZXZX^ ^ ZXZXZXZXZXZXZXZXX 9.K.A.G.7./.cXvXyXB.<XvXcXsXsXsXsXsX<X5 0.k.8.3.:.o.=.X.9.A.A.A.A.l.K.u z.aX5X3X%XW 0 ZXZXZXZXZXZXZXZXZXZXZXZXZXZXZXZXZXZXZXZXZXZX",
"ZXZXZXZXZXZXZXZXZXZXZXZXZXZXZX< G.A.S.H.,.v.oXyXpXyXoXdXcXcXzXxXiXN.+ 4 < p.~.-XiXoX>.A.A.A.A.k.K.O.O V.V.z.T G ZXZXZXZXZXZXZXZXZXZXZXZXZXZXZXZXZXZXZXZXZXZXZXZX",
"ZXZXZXZXZXZXZXZXZXZXZXZXZXZXZXY r Z.K.A.Z.p.<XoX(.Q.X 1 c.v.z.C ; - , > + yXcXxXbXoX,.J.A.A.A.I.X.# % X % ZXZXZXZXZXZXZXZXZXZXZXZXZXZXZXZXZXZXZXZXZXZXZXZXZXZXZX",
"ZXZXZXZXZXZXZXZXZXZXZXZXZXZXZXZXI 6 :.D.G.-.CXcXlXcXiX1 - - - > ; ; ; , ) sXsXpXzXb.8.A.A.J.G.t = ZXZXZXZXZXZXZXZXZXZXZXZXZXZXZXZXZXZXZXZXZXZXZXZXZXZXZXZXZXZXZX",
"ZXZXZXZXZXZXZXZXZXZXZXZXZXZXZXZXZXZX* d 3.8.!.cXpXpXcXyX1 , , ; , { ' ' %XcXpXlXaXr.P.J.K.7.w * ZXZXZXZXZXZXZXZXZXZXZXZXZXZXZXZXZXZXZXZXZXZXZXZXZXZXZXZXZXZXZXZX",
"ZXZXZXZXZXZXZXZXZXZXZXZXZXZXZXZXZXZXZXZXJ d < /.bXzXsXcXoX: > , [ [ ] x.fXsXsXzXQ t o.$.f L ZXZXZXZXZXZXZXZXZXZXZXZXZXZXZXZXZXZXZXZXZXZXZXZXZXZXZXZXZXZXZXZXZXZX",
"ZXZXZXZXZXZXZXZXZXZXZXZXZXZXZXZXZXZXZXZXZXZXU o R <XxXpXvXv.+ ' [ ' _ <XcXlXlX! 4 X.*.} 3 m ZXZXZXZXZXZXZXZXZXZXZXZXZXZXZXZXZXZXZXZXZXZXZXZXZXZXZXZXZXZXZXZXZXZX",
"ZXZXZXZXZXZXZXZXZXZXZXZXZXZXZXZXZXZXZXZXZXZX* i $. .p.Q oXvXv.) _ M.yXbXyXXXn } K.K.K.G.J.7.i v ZXZXZXZXZXZXZXZXZXZXZXZXZXZXZXZXZXZXZXZXZXZXZXZXZXZXZXZXZXZXZXZX",
"ZXZXZXZXZXZXZXZXZXZXZXZXZXZXZXZXZXZXZXZXZX2 7.K.J.J.Z.h.:.[.bXfXfXvXzXXXa u X.K.A.A.A.S.A.H.K.8.g P ZXZXZXZXZXZXZXZXZXZXZXZXZXZXZXZXZXZXZXZXZXZXZXZXZXZXZXZXZXZX",
"ZXZXZXZXZXZXZXZXZXZXZXZXZXZXZXZXZXZXZXZX3 j.J.A.A.A.A.A.F.7.n..X<XXXD X.D.A.A.l.A.A.A.A.A.A.A.H.K.$.m ZXZXZXZXZXZXZXZXZXZXZXZXZXZXZXZXZXZXZXZXZXZXZXZXZXZXZXZXZX",
"ZXZXZXZXZXZXZXZXZXZXZXZXZXZXZXZXZXZXZXx h.H.A.A.k.k.<.S.A.H.j.:.X.O.g.K.A.A.H.l.H.A.A.A.A.A.A.A.A.K.8.z ZXZXZXZXZXZXZXZXZXZXZXZXZXZXZXZXZXZXZXZXZXZXZXZXZXZXZXZX",
"ZXZXZXZXZXZXZXZXZXZXZXZXZXZXZXZXZXZX8 4.F.A.A.H.&.:...G.A.A.A.H.K.K.D.A.A.A.A.A.A.A.A.A.A.A.A.A.A.A.D.Z.d ZXZXZXZXZXZXZXZXZXZXZXZXZXZXZXZXZXZXZXZXZXZXZXZXZXZXZX",
"ZXZXZXZXZXZXZXZXZXZXZXZXZXZXZXZXZX* $.G.A.A.A.l.} r N -.H.A.A.A.l.r.t.l.A.A.A.A.A.A.A.H.A.A.A.H.A.A.A.A.L.f Y ZXZXZXZXZXZXZXZXZXZXZXZXZXZXZXZXZXZXZXZXZXZXZXZXZX",
"ZXZXZXZXZXZXZXZXZXZXZXZXZXZXZXZX* } K.A.A.A.A.H.} D rX'.&.J.A.F.,._.0Xf.Z.H.A.A.A.A.A.A.A.A.A.A.A.A.A.A.A.L.h I ZXZXZXZXZXZXZXZXZXZXZXZXZXZXZXZXZXZXZXZXZXZXZXZX",
"ZXZXZXZXZXZXZXZXZXZXZXZXZXZXZXI f G.A.A.A.A.j.J.$.~.wXwXR.2.K.h.m.wXqX].e.D.A.A.A.A.H.A.A.A.A.A.A.A.A.A.A.A.L.h Y ZXZXZXZXZXZXZXZXZXZXZXZXZXZXZXZXZXZXZXZXZXZXZX",
"ZXZXZXZXZXZXZXZXZXZXZXZXZXZXZXs F.A.A.A.A.A.A.J. .].wX|.0Xf.7.i.,X9X9XwXE.8.A.A.A.9.w.F.H.A.A.A.H.A.A.A.A.A.A.D.l ZXZXZXZXZXZXZXZXZXZXZXZXZXZXZXZXZXZXZXZXZXZXZX",
"ZXZXZXZXZXZXZXZXZXZXZXZXZXZXa D.A.A.A.A.A.A.A.H.@.,XeX9X9X9X[.{.eX9X9XeX0Xi.Z.A.A.S.X.| 6.F.G.A.A.A.A.A.A.A.A.A.L.s ZXZXZXZXZXZXZXZXZXZXZXZXZXZXZXZXZXZXZXZXZXZX",
"ZXZXZXZXZXZXZXZXZXZXZXZXZXx h.H.A.A.A.A.A.A.l.F.+.8XeX9X9X9XqXeX9X9X9X9XwX'.2.J.A.H.H.w.p r 1.A.K.A.A.A.A.A.A.A.A.j.z ZXZXZXZXZXZXZXZXZXZXZXZXZXZXZXZXZXZXZXZXZX",
"ZXZXZXZXZXZXZXZXZXZXZXZXm ,.J.A.A.A.A.A.A.A.K.,.2 0X9X9X9X9X9X9X9X9X9X9X|.qXC.j.A.A.A.A.D.c ~ a %.w.F.H.A.A.A.A.A.J.9.m ZXZXZXZXZXZXZXZXZXZXZXZXZXZXZXZXZXZXZXZX",
"ZXZXZXZXZXZXZXZXZXZXZXm >.J.A.A.A.A.A.A.H.L.1.$ 8 9XeX9X9X9XeXeX9X9X9X9XeXwX8X-.D.A.A.A.H.6.U ZXZXV @.8.F.H.A.A.A.A.G.1.V b ZXZXZXZXZXZXZXZXZXZXZXZXZXZXZXZXZXZX",
"ZXZXZXZXZXZXZXZXZXZXA 9.J.A.A.A.A.A.A.K.8.j U ZXR |.qX9X9X9XeXeX9X9X9X9X9X9XwX_.>.F.A.A.l.F.@.P ZXZXZXL h 0.F.A.A.A.A.H.j.2.@.w 9 ZXZXZXZXZXZXZXZXZXZXZXZXZXZXZX",
"ZXZXZXZXZXZXZXv N -.h.J.A.A.A.A.A.G.j.=.Z ZXZXZXR |.qX9X9X9X9X9X9X9X9X9X9X0X9XwXs.8.H.A.A.A.F.p P ZXZXZXZXv @.j.H.A.A.A.A.H.F.j.o.d v ZXZXZXZXZXZXZXZXZXZXZXZXZX",
"ZXA k N s s h 6.A.F.A.A.A.A.A.F.D.%.V ZXZXZXZXZXm {.qX9X9XeXeX9X9X9X9X9X9X9X9XeX,X@.F.A.A.A.A.F.%.K ZXZXZXZXZXD h.A.A.A.A.A.A.A.A.9.&.%.-.%.v ZXZXZXZXZXZXZXZXZX",
"% $.I.k.9.l.G.D.A.A.A.A.A.A.k.1.M ZXZXZXZXZXZXZXE ].qX0X9X9X9X9X9X9X9X9X9X9X9X9XwX~.*.F.A.A.A.A.G.,.c ZXZXZXZXK 4.H.A.A.A.A.A.A.k.A.K.I.P.8.2 ZXZXZXZXZXZXZXZXZX",
"ZXv } &.>.0.k.A.A.A.A.A.A.A.< ZXZXZXZXZXZXZXZXZXK _.wX9X9X9X9X9X9XeXeX9X9X9X9X9X9XwXY.,.J.A.A.A.A.J.A.d % ZXZXn j.A.A.A.D.D.H.A.q.6.X.e M L ZXZXZXZXZXZXZXZXZXZX",
"Z B r &.1.9.A.H.H.F.H.A.A.F.3 ZXZXZXZXZXZXZXZXZXZXR.wX0X9X9XeX9X9XeX9X9X9X9X9XeX9XeXeXs.h.H.A.A.A.A.A.G.i = ^ =.H.A.F.j.1.e.0.A.G.K.A.9.+.U ZXZXZXZXZXZXZXZXZXZX",
"c 4.G.F.F.L.j.8.,.e.9.F.A.H.| Y ZXZXZXZXZXZXZXZXZXb.wX0X9X9XeX9X9XeXeX9X9XeX9X9X9X9XqX8X;.A.A.A.A.A.A.j.I.< f G.H.L.:.A ZXZXR B @.e.2.,.e J ZXZXZXZXZXZXZXZXZXZX",
"ZX8 M N B B a R ZXZXL @.Z.G.P.g Y ZXZXZXZXZXZXZXZXR qX9X9X9X9X9X9X9X9X9X9X9X9X9X9X9X9XqX'.o.F.A.A.A.A.A.J.y } A.>.l * ZXZXZXZXZXZXZXZXZXZXZXZXZXZXZXZXZXZXZXZXZX",
"ZXZXZXZXZXZXZXZXZXZXZXZXB =.=.z U ZXZXZXZXZXZXZXZX* |.eX9X9X9X9X9X9X9X9X9X9X9X9X9X9X9X9XwXm.4.J.A.A.A.A.A.S.o.@ * ZXZXZXZXZXZXZXZXZXZXZXZXZXZXZXZXZXZXZXZXZXZXZX",
"ZXZXZXZXZXZXZXZXZXZXZXZXZXZXZXZXZXZXZXZXZXZXZXZXZX% T.tX0XeX9X9X9XeX9X9X9X9X9XqX9X9X9X9XqX8Xk D.A.A.A.A.A.A.I.} H ZXZXZXZXZXZXZXZXZXV +.e.e.e.-. .y.p.ZXZXZXZXZX",
"ZXZXZXZXZXZXZXZXZXZXZXZXZXZXZXZXZXZXZXZXZXZXZXZXZXZX6 0X9X9X9X9X9X9X9X9X9X9X9X9X9X9X9X9X0XwXb.3.J.A.A.A.A.A.A.l.$ ZXZXZXZXZXK V +.2.q.9.=.+.j B p.@.@.y.N m ZXZX",
"ZXZXZXZXZXZXZXZXZXZXZXZXZXZXZXZXZXZXZXZXZXZXZXZXZXZXF D tX|.9X9X9X9X9X9X9X9X9X9X9X9X9X9X9XqX_.$.J.A.A.H.A.A.l.K.< e r.i.-.1.9.8.2.@.a K ZXZXZXZXZXZXZXZXZXZX*  X",
"ZXZXZXZXZXZXZXZXZXZXZXZXZXZXZXZXZXZXZXZXZXZXZXZXZXZXZX% T.tX9X9X9X9X9X9X9X9X9X9X9X9X9X9X0XwX_.*.J.A.A.A.A.A.A.K...} A.h.9.-.+.c J ZXZXZXZXZXZXZXZXZXZXZXZXZXZXZX",
"ZXZXZXZXZXZXZXZXZXZXZXZXZXZXZXZXZXZXZXZXZXZXZXZXZXZXZX9 + !.tX9X0X9X9X9XqX9X9X9X9X9X9X9X9XwXT.3.J.A.A.A.H.A.A.H.9.# x 6 K ZXZXZXZXZXZXZXZXZXZXZXZXZXZXZXZXZXZXZX",
"ZXZXZXZXZXZXZXZXZXZXZXZXZXZXZXZXZXZXZXZXZXZXZXZXZXZXZXv 4.5 c.qXwX9X9X9XeX9X9X9X9X9X9X0X9X0Xd.Z.H.A.A.A.A.A.A.A.j.c ZXZXZXZXZXZXZXZXZXZXZXZXZXZXZXZXZXZXZXZXZXZX",
"ZXZXZXZXZXZXZXZXZXZXZXZXZXZXZXZXZXZXZXZXZXZXZXZXZXZXZXz D.K...M ~.qXqX9X9X0X9X9X9X9X9XqXqXE.8.H.A.A.A.A.A.A.A.A.L.d ZXZXZXZXZXZXZXZXZXZXZXZXZXZXZXZXZXZXZXZXZXZX",
"ZXZXZXZXZXZXZXZXZXZXZXZXZXZXZXZXZXZXZXZXZXZXZXZXZXZXZXg G.l.K.w.u p.[.qXqXrXqXwXqXqXqX{.E.8.H.A.A.A.A.A.H.A.A.A.K.i ZXZXZXZXZXZXZXZXZXZXZXZXZXZXZXZXZXZXZXZXZXZX",
"ZXZXZXZXZXZXZXZXZXZXZXZXZXZXZXZXZXZXZXZXZXZXZXZXZXZX* &.J.A.A.H.J.7.o.s.R.~.'.'.'.E.f.t.j.A.A.A.A.A.A.A.A.A.A.A.F.&.P ZXZXZXZXZXZXZXZXZXZXZXZXZXZXZXZXZXZXZXZXZX",
"ZXZXZXZXZXZXZXZXZXZXZXZXZXZXZXZXZXZXZXZXZXZXZXZXZXZXx h.A.A.A.A.A.H.F.j.8.,.2.>.*.$.h.D.K.A.j.A.A.A.A.A.A.A.A.A.J.,.8 ZXZXZXZXZXZXZXZXZXZXZXZXZXZXZXZXZXZXZXZXZX",
"ZXZXZXZXZXZXZXZXZXZXZXZXZXZXZXZXZXZXZXZXZXZXZXZXZXZXs G.A.A.A.A.A.A.A.A.A.H.H.I.Z.e 2 j :.D.J.A.A.A.A.A.A.A.A.A.H.g.n ZXZXZXZXZXZXZXZXZXZXZXZXZXZXZXZXZXZXZXZXZX",
"ZXZXZXZXZXZXZXZXZXZXZXZXZXZXZXZXZXZXZXZXZXZXZXZXZXP %.G.A.A.A.A.A.A.A.A.A.F.Z.o.z K ZXZXJ a >.F.D.A.A.A.A.A.A.A.A.F.s ZXZXZXZXZXZXZXZXZXZXZXZXZXZXZXZXZXZXZXZXZX",
"ZXZXZXZXZXZXZXZXZXZXZXZXZXZXZXZXZXZXZXZXZXZXZXZXZXx g.A.A.A.A.A.A.A.A.A.G.1.w H ZXZXZXZXZXZXJ s 4.K.A.A.H.A.A.A.A.G.&.ZXZXZXZXZXZXZXZXZXZXZXZXZXZXZXZXZXZXZXZXZX",
"ZXZXZXZXZXZXZXZXZXZXZXZXZXZXZXZXZXZXZXZXZXZXZXZXZXh F.A.A.A.A.A.A.A.K.g.f 9 ZXZXZXZXZXZXZXZXZXZX0 h Z.G.A.Z.A.A.A.A.h.n ZXZXZXZXZXZXZXZXZXZXZXZXZXZXZXZXZXZXZXZX",
"ZXZXZXZXZXZXZXZXZXZXZXZXZXZXZXZXZXZXZXZXZXZXZXZXv 7.J.A.A.A.A.A.A.G.$.n ZXZXZXZXZXZXZXZXZXZXZXZXZXZXx $.F.H.A.A.A.A.F.-.ZXZXZXZXZXZXZXZXZXZXZXZXZXZXZXZXZXZXZXZX",
"ZXZXZXZXZXZXZXZXZXZXZXZXZXZXZXZXZXZXZXZXZXZXZXP @.F.A.A.A.A.A.A.H.h U ZXZXZXZXZXZXZXZXZXZXZXZXZXZXZXZXJ B j.H.A.A.A.A.A.s A ZXZXZXZXZXZXZXZXZXZXZXZXZXZXZXZXZXZX",
"ZXZXZXZXZXZXZXZXZXZXZXZXZXZXZXZXZXZXZXZXZXD ;.2.j.A.A.A.A.A.A.D.N ( ZXZXZXZXZXZXZXZXZXZXZXZXZXZXZXZXZXZXZXM 8.J.A.A.A.A.S.h.2.i.B V ZXZXZXZXZXZXZXZXZXZXZXZXZXZX",
"ZXZXZXZXZXZXZXZXZXZXZXZXZXZXZXZXZXZXn y.6.A.D.F.A.A.A.A.A.A.F.%.~ ZXZXZXZXZXZXZXZXZXZXZXZXZXZXZXZXZXZXZXZXZX6 9.H.A.A.A.A.A.D.D.A.0.-.j 0 ZXZXZXZXZXZXZXZXZXZXZX",
"ZXZXZXZXZXZXZXZXZXZXZXZXZXZXZXZX* l 8.L.l.&.1.q.A.A.A.A.A.k.I.=.ZXZXZXZXZXZXZXZXZXZXZXZXZXZXZXZXZXZXZXZXZXZXc g.A.A.A.A.A.A.A.A.A.K.G.G.8.j U ZXZXZXZXZXZXZXZXZX",
"ZXZXZXZXZXZXZXZXZXZXZXZXZXZXZXZX< U.U.<.| 9.A.H.H.H.J.K.G.H.,.w ZXZXZXZXZXZXZXZXZXZXZXZXZXZXZXZXZXZXZXZXZXZXn 1.L.F.H.A.A.A.A.A.l.:.&.%.l.G.#.U ZXZXZXZXZXZXZXZX",
"ZXZXZXZXZXZXZXZXZXZXZXZXZXZXZXZX6 j y @ :.H.S.S.h.9.2.&.@.d b ZXZXZXZXZXZXZXZXZXZXZXZXZXZXZXZXZXZXZXZXZXZXZXZXb g <.w.H.F.F.D.H.A.q.q.w.e A.3.* ZXZXZXZXZXZXZXZX",
"ZXZXZXZXZXZXZXZXZXZXZXZXZXZXZXZXZXZXZXZX0 2 3 2 n n ZXZXZXZXZXZXZXZXZXZXZXZXZXZXZXZXZXZXZXZXZXZXZXZXZXZXZXZXZXZXZXJ A N h %.2.7.j.A.Z.8.4 < 6 ZXZXZXZXZXZXZXZXZX",
"ZXZXZXZXZXZXZXZXZXZXZXZXZXZXZXZXZXZXZXZXZXZXZXZXZXZXZXZXZXZXZXZXZXZXZXZXZXZXZXZXZXZXZXZXZXZXZXZXZXZXZXZXZXZXZXZXZXZXZXZXZXZX8 6 x z w * P ZXZXZXZXZXZXZXZXZXZXZX"
};
