/* XPM */
static char *d56a2e55f5b54ea7a3fb733fa9deadc129XRQVbdxKBOfmpP[] = {
/* columns rows colors chars-per-pixel */
"80 80 19 1 ",
"  c #2C2A35",
". c #2D2A35",
"X c #2D2B36",
"o c #302F39",
"O c #312F39",
"+ c #313038",
"@ c #313039",
"# c #3D3C4D",
"$ c #3D3D4D",
"% c #3D3D4E",
"& c #3E3C4E",
"* c #3E3D4E",
"= c #4C4B5D",
"- c #4D4C5D",
"; c #4C4C5E",
": c #4D4C5E",
"> c #5C5E70",
", c #5D5F70",
"< c #5D5F71",
/* pixels */
"$$$$#==-==$$*$$:=-==##*$$==-====-==##$$$=====#$&$$...    .  ==:=:$$&$$,,,,,:=-==",
"$$&$#:====$$&$#==-==##*$$:=-====-=:$#$$$==-=-#$*$$...    .  ==:=:$$&$$,,>,,=====",
"&&$$$:::::$**$$:::::$***$::::::::::$**$$:::::$$**$..XXXXXXXX:::::$$$$$<,<>>:::::",
"$$&$#=::==$$*##:=-==$$*$$==-==---==#$*$$====-#$$$$  .    .  ==:=:$$$$$<,>,,=====",
"$$&##=::=-##&##-:==-##*#$:=-==---==#$&$$:::==#$$$$. .    . .==:==##$##,,>,,=====",
":::==#$&##-=:=-#$&##-=-====-==##$##=::::$$&&#=:-=:$$*$$  . .$$&$#==--===:=======",
":::==$$$##==-:=#$*$$-=-=======##&$$:====$$$$#-=-==$$&$$  ...$$&$$:=-============",
":::::$$$$$:::::$***$::::::::::***$$:::::**$$$:::::$****XXXXX$$$$$:::::::::::::::",
"===::$$$$$==-==#$&$$:=-====-==$$&$$:=-==##*##==-==$$$$$  .  $$&$$::=====-====:==",
"==-::$$$$$==-==#$$$$==-=======$$&$#:=-==##*##:====$$&$$  .  $$&$$:======-====:==",
"##$$#==-:===-====-===================-===---:&$*$$==::=  .  $$&$$$$&##-=-=======",
"##$##==-:===-====-=========:=========-===---:$$*$$==:=;  .  $$&$$$$&##-=-=======",
"$$$*$:::::::::::::::::::::::=::::::::::::::::$$*$$:::::.XXX.********$$::::::::::",
"$$*$#=:-====-====-====-====-====-====-====-=:$$$$$:::==  .  $$&$$$$&$#==-====:==",
"##*$#==-==:=-====-=======:=-====-====-====-:=##$##==:=;  .  $$&$$$$*$$:=--===:::",
"-:::===-==$$$$#==-=======$$$&&==-====-==##$$###$#&  .    .  OOOOO$$$$$$$$###$&&$",
"-=-====-==$$#$$-=-====-=:&$&$$==:===::=:$$&$$$$&#$. .    .  +O+OO$$*$$$$&$$$$&$$",
"::::::::==$$$$$---:::::::$$$&$:::::::;;;********$$XXXXXXXXXX++++O***************",
"==-====-==###$$==-====-=:$$&$$::====::==$$&$$$$&$$  .    .  OO+OO$$&$$$$&$$$$&$$",
"==-====-==###$$-=-====-=:$$&$$::=====:==$$&$$$$&$$  .    .  OO+OO$$*$$$$&$$$$&$$",
"$$*$###$####*$##$*$$#$$#$$$&#&=====#$&$$$$&$$  .    .    .    . .OO+@@$$&$$$$&$$",
"$$*$##$$####*###$*$$$$$$$$$&#&=:==-#$&$$$$&$$  .    .    .    . .OO+o+$$&$$$$&$$",
"******$$=#************$$$&$$$$:::::$*********XXXXXXXXXXXXXXXXXXXXO@@@@&&********",
"$$*$$$$*$$##*###$*$$$$*$$$$$$$::-=:$$&$$$$&$$  .    .    .    . XOO+OO$$&$$$$&$$",
"$$&$*##*$$$$&*#*$*$$*$*$$$$*&$::-=:$$$$$$$*$$ X.    . .. .X.... .OO+OO&$&$$*$*$*",
"OOOOOO++OOOO+Oo+O+OOOOOOOOOoOOOO+oOOOOOOOOOOOOo+O+  ...OO+ooOOOOOOO+OOOO+OOoO+Oo",
"OO+OOOO+OOOO+OOOO+OOOO+OOOO+OOOO+OOOO+OOOO+OOOO+OO  . .OO+oooo+OOOO+OOOo+OooOOoo",
"++++OOOO++++OOOO+++O+++O++++@++++++++++O+++++++@++XXX..o+@@@@@++++++++++@+@@++++",
"OOooooO+OOooooOOO+OOOO+OOOO+OOOOoOOOO+OOOO+OOOO+OO  ...o+oOOoo+OOOOoOOOO+oOOO+OO",
"OOoO+o++OOoo++O+O+OOOO++OOO+OOOOoOOOO+OOOO+OOOO+OO  ...oOoOOoo+OOOOoOOOO+oOOO+OO",
":::====-:::=-==,<<,,OOooOOO+OOOO+oO,,,<<,,>,,,,><<OOo+O,,,,,,<<<,,,<<<OO+OOOO+OO",
":::====-::==-==,<<,,OOooOOO+OOOO+oO,,,<<,,>,,,,>,<OOoOO,,,,,,<<<,,,<<<OO+OOOO+OO",
":::::::::::::::>,<,,+oOO@@@@@@@+++O,,<,,>>,>>>><>>+++++,,<>>>><>>>>,>>++++++++++",
"==-====-====-==,,,,,OooOOOO+oo@++OO,,,,,,,>,,,,>,,OO+oO<,>,,,,>,,,,>,,OO+OOOO+OO",
"==-====-====-==,,>,,OOoOOOO+ooX++OO,,>,,,,>,,,,>,,OO+oo,,>,,,,>,,,,>,,OO+OOOO+OO",
"==-====-====-==,,>,,,,>,<OO+OO><,,,,,>,,==-==,,>,<==-====:====:====-====:==<,>,,",
"==-====-====-==,,>,,,,,,<OO+OO<<>,,,,>,,==-=;,,>,,==:====-=========:====:==,,>,,",
":::::::::::::::>><>>,,<><O++++<<<>>>><>>::::;>><>>:::::::::::::::::::::::::>><>>",
"==-====-====:=;<,>,,,,<<<OO+OO<<>,,,,>,,==-=;,<<,,==:====-=========:==;=:==,,>,,",
"==-====-====:=;<,>,,,,,<<OO+O+<<>,,,,>,,==-==,<<,,==-====-====-====:==;;:==,,>,,",
"::::::::::::::::::::<><><o++++::::::::::::::::::::::::::::::::::::::::::;;;*$&**",
"::;::::;:::::::::=::,,,,<++o++::=::::;::::;::::;::::;:::::::::;::::;::::;;;**%%%",
"::::::::::::::::::::>><><o@@@@::::::::::::::::::::::::::::::::::::::::::;;;*****",
"::;::::;:::::::::=::,,,,<++o++::=::::;::::;:::::::::;:::::::::;::::;::::;:=%%%%*",
"::;;::::::::;;;;;;;;>><><o+@@@:;::;;;::::::::::::::::::::::::::::::::::::::&****",
"&&&*$:::::**&***&***:::::@@@@@**$&*;::::&&***::::::::::::::::::::***&&:::::&$&**",
"**$$$:::::**$****&$*::=::++o++%%&**;:;::&*$**:::::::;::::;::::;::**$**:::::&%%%%",
"**$$$:::::*&&&***$$$:::::@@@@@**$$*;::::&&&&*::::::::::::::::::::*****:::::&****",
"**$**;;;;;**$****%%*;;;;;O+O++*%$**:;;;;**$*&::;::::;::::;::::;:;**%%%;;;;;&*%%*",
"*****;;;;;&&******&$;;;;;O++@@*****:;;;;***&&:::::::::::::::::::;****$;;;;:&**&$",
"*******$&&:::::*&$*******@+@+@******&&**::::::::::$$$**:::::*$*****$******&&$***",
"%*$*%%*&&*::;:;*%%%%**&$*++o+o%*&****$%%:::::::;::$$%**::;::*%%*%%*%*%%%$***%%%%",
"**$***$***:::::*&$***$***@@@@@**$$******::::;:::::*****:::::********************",
"%%%%%*%%%*::;:;*%%*%*%%%*++o++**&%%**$*%::::;;:;::**$**::;::%%%%%%%%%%%%$****$%%",
"**********:::::**********@@@@@**********::::;;;;::&&***:::::**$*****************",
"********************XXXXXXXXXX@@@@X************$$$&&***********************XXXXX",
"%*%%%%%%%%%%%*%%%%%%XXXXXXXXXX++@++*%%%%%%%%%%%%%%%%%%%%*%%%%%%%%%%%%%%%$*$XXXXX",
"**$*********$*******XXXXXXXXXX@@@@@**********************$****$&**********$XXXXX",
"%%%%%%**%%%%%%%%%%%*XXXXXXXXXX++@++*%%%%%%**%%%%%%%%%%***%%*%*&%*%**%%%%$*$XXXXX",
"************$*******XXXXXXXXXX@@@@@***********************$****$**********$XXXXX",
"X@@@@@@@@@@@+@@@@@@@@@@@@XXXXX@@@@@@o+@@@@@@@@@@X@@@@@@@@@@@X@@@@XXXXX@@O@@XXXXX",
"++@++++o++++X@+++o++++o++XXXXX++o++++o++++o++++@@+++o++++o++++@++XXXXX++X++XXXXX",
"@@@@@@@@@@@@@@@@@@@@@@@@@XXXXX@@@@@@@@@@@@@@@@@@@@@@@@@@@@@@@@@@@XXXXX@@@@@XXXXX",
"++@++++@++++@++++o++++o++XXXXX++o++++o++++o++++@++++o++++o++++@++XXXXX++@++XXXXX",
"@@@@@@@@@@@@@@@@@@@@o++o+X XX ++OOOOOOO++X++++++++@@@@@@@@@@@@@@@XXXXX@@OOO.XXXX",
"@@@@@@@@@@::::::::::>><<<<><<><<<>,,><>><<<<>:::::@@@@@@@@@@@@@@@XXXXX<<<>>><<>>",
"++o++++o++::::::::::,,,,>,,,,,<>,,,,,,,,,,<<,::;::++o++++o++++o++XXX  <<,,,,>,,,",
"@@@@@@@@@@::::::::::>><>>>><>>>><>>>><>>><<<>:::::@@@@@@@@@@@@@@@XXX  <<<>>>><>>",
"++o++++o++::;:;;::::<<,,,,,,,,,,,,,,,,,,,,,,,::;::++o++++o++++o++XXXXX<<,,,,,,,,",
"@@@@@@@@@+:::;;;::::<<<>>>><>>>><>>>><>>>><>>:::::@@@@@@@@@@@@@@+XX.XX<<<>>>><>>",
"@@@@@:::::&&&&*;::::<><>>>><>>>><>>>><>>:::::::::::::::@@@@@@@@@+<><>>>><>>>><>>",
"++o++::;::**$&*;:;::<>,,,,,,,,,,,,,,,,,,::;::::;::::;::++o++++o+o<,,,,>>,,,,,,,,",
"@@@@@:::::*****;::::>><<>>><>>>><>>>><>>:::::::::::::::@@@@@@@@@+>><,>>><>>>><>>",
"++o++::;::**%*%;:=::>><<,,,,,,,,,,,,,,,,::;::::;::::;::++o++++o++<,,,,,,,,,,><,,",
"@@@@+:;;::*****:::::>><<><><>>>><>>>><>>:::::::::::::::@@@@@@@@@+<><<<<<<>>><<<<",
"@@@@O*****:;::::::::$$**$:;:::>><>>:::::*****::::::::::@@@@@:::::$$$&&::::::::=:",
"++o++*%%*%::;::::=::%%%*$::;::,,,,,::;;;*%%%*;:;::::;::++o++::;::$*%%%;;:::::=::",
"@@@@@*****::::::::::**$*$:::::>><,,:::;;***$*::::::::::@@@@@:::::****$;;::::::::",
"++o++*%%%%;:;::::;::**$*$::;::,,<,<::;;;%*&%*::;::::;::++o++::;::**$*%;;=::::=::",
"@@@@@*****::::::::::****$:::::>><<<:::;;***$*::::::::::@@@@@:::::*****;;::::::::"
};
